<?xml version="1.0" encoding="UTF-8" standalone="no"?>
<svg
   xmlns:dc="http://purl.org/dc/elements/1.1/"
   xmlns:cc="http://creativecommons.org/ns#"
   xmlns:rdf="http://www.w3.org/1999/02/22-rdf-syntax-ns#"
   xmlns:svg="http://www.w3.org/2000/svg"
   xmlns="http://www.w3.org/2000/svg"
   xmlns:sodipodi="http://sodipodi.sourceforge.net/DTD/sodipodi-0.dtd"
   xmlns:inkscape="http://www.inkscape.org/namespaces/inkscape"
   width="537.5675"
   height="553.26581"
   id="svg2"
   version="1.1"
   inkscape:version="0.91 r13725"
   sodipodi:docname="securitycamera-2.svg">
  <metadata
     id="metadata3802">
    <rdf:RDF>
      <cc:Work
         rdf:about="">
        <dc:format>image/svg+xml</dc:format>
        <dc:type
           rdf:resource="http://purl.org/dc/dcmitype/StillImage" />
        <dc:title></dc:title>
      </cc:Work>
    </rdf:RDF>
  </metadata>
  <defs
     id="defs3800" />
  <sodipodi:namedview
     pagecolor="#ffffff"
     bordercolor="#666666"
     borderopacity="1"
     objecttolerance="10"
     gridtolerance="10"
     guidetolerance="10"
     inkscape:pageopacity="0"
     inkscape:pageshadow="2"
     inkscape:window-width="1916"
     inkscape:window-height="1035"
     id="namedview3798"
     showgrid="false"
     fit-margin-top="0"
     fit-margin-left="0"
     fit-margin-right="0"
     fit-margin-bottom="0"
     inkscape:zoom="0.91720259"
     inkscape:cx="233.19253"
     inkscape:cy="291.12613"
     inkscape:window-x="4"
     inkscape:window-y="1"
     inkscape:window-maximized="1"
     inkscape:current-layer="svg2" />
  <g
     id="g7934"
     transform="translate(-96.807472,-13.477481)">
    <path
       inkscape:connector-curvature="0"
       id="path7932"
       d="m 264.99857,138.18095 -123.42145,105.88688 4.43962,136.27182 71.03393,98.52084 15.98264,25.78115 42.62035,34.06795 78.13732,27.62267 64.81846,-2.76227 25.7498,-11.04906 54.16337,-35.90947 52.38752,-81.94724 63.93054,-78.26421 19.53433,-73.66045 -6.21547,-109.5699 -6.21547,-30.38493 -24.86187,-42.35475 -93.23203,-58.007601 0.88792,-7.366044 -47.9479,-12.890577 -67.48223,-8.2868 -193.56746,56.166086 z"
       style="fill:#e0dcdb;fill-opacity:1;fill-rule:evenodd;stroke:none;stroke-width:1px;stroke-linecap:butt;stroke-linejoin:miter;stroke-opacity:1" />
    <path
       inkscape:connector-curvature="0"
       id="path30"
       d="m 192.01121,445.89744 -4.26203,-7.36604 -2.84136,1.4732 -1.42068,0 4.26204,-2.94641 -9.46172,-47.14268 9.46172,-55.98194 c -12.45225,11.79304 -12.78611,28.02191 -12.78611,44.19626 l -1.42068,0 c -10.78295,-46.96442 29.94648,-87.16387 65.35121,-108.16446 69.24672,-41.07453 161.30527,-44.68242 235.83265,-18.00261 21.89123,7.836 39.80599,26.03749 61.08917,33.35492 0,-3.58874 1.11666,-2.37923 4.26204,-1.47321 l -1.42068,2.94642 12.78611,7.36604 c -11.19211,-25.15062 -40.62999,-25.54544 -56.82714,-42.72305 -6.71697,0.80142 -23.84041,-7.01395 -25.41452,-14.73209 -0.60663,-2.97146 -2.62684,-23.44906 2.68366,-19.15171 l 1.42068,0 4.26203,-20.62493 2.84136,0 1.42068,4.41963 1.42068,0 0,-22.09813 -12.78611,2.94641 0,-11.78567 -2.84136,0 0,11.78567 -2.84135,0 0,-13.25888 -8.52408,-1.4732 -7.10339,2.94641 0,-1.47321 2.84136,-2.94641 c -8.80253,-4.10878 -31.08871,-11.74295 -31.25493,-22.09813 l -4.26204,-4.41963 c 5.80206,0.5056 14.92281,-5.31283 5.68272,-7.36605 l 0,-1.4732 4.26203,-2.94642 -9.94475,1.47321 4.26204,-4.41963 c -11.87403,-4.03364 -9.97742,-13.3212 -2.84136,-22.09813 l 2.84136,2.94642 1.42068,-4.41963 c -8.43031,-11.53935 1.53007,-26.444393 -18.46882,-26.517758 l 0,-7.366044 -11.36543,-1.473209 2.84136,-13.258879 -71.03393,1.473208 0,-1.473208 c 41.91286,-5.492712 86.45113,-4.789255 127.86107,4.441135 21.92817,4.887959 43.34348,15.772468 65.35121,19.130205 l -19.83409,-9.312152 -54.04119,-17.205606 4.26203,-7.366044 -9.94475,0 0,-14.732088 9.94475,-1.473209 0,-1.473209 -7.10339,0 -8.52407,0 -4.26204,-10.312461 C 325.04497,9.6708848 183.79969,23.049536 121.13072,121.7915 89.051794,172.33582 95.673577,238.70241 102.24706,295.63014 c 3.33717,28.90436 5.7509,55.75654 18.31396,82.49969 10.5869,22.53568 28.32833,37.66848 47.42652,52.6245 7.23125,5.66301 14.97821,13.25298 24.02367,15.14311 z"
       style="fill:#efeeef;stroke:none" />
    <path
       inkscape:connector-curvature="0"
       id="path32"
       d="m 426.42317,15.720469 0,1.473209 5.68272,7.366044 8.52407,0 7.10339,0 0,1.473209 -9.94475,1.473209 0,14.732088 9.94475,0 -4.26203,7.366044 55.40646,17.678506 0,-11.785671 2.84136,8.839253 2.84136,0 2.84135,-7.366044 -12.7861,-8.839253 7.10339,-8.839253 -7.10339,-7.366044 9.94475,2.946418 C 487.84479,20.479229 447.65522,15.781313 426.42317,15.720469 Z"
       style="fill:#d7d7d7;stroke:none" />
    <path
       inkscape:connector-curvature="0"
       id="path40"
       d="m 494.61575,31.925766 7.10339,7.366044 -7.10339,8.839253 12.7861,8.839253 -2.84135,7.366044 -2.84136,0 -2.84136,-8.839253 c -7.31933,12.44449 12.46504,14.603477 18.46882,20.624923 l -14.20678,-2.946417 0,1.473209 14.20678,8.839252 -11.36543,0 2.84136,2.946418 0,1.473209 c -5.80773,5.262891 -8.50134,27.084799 -8.52407,35.357009 l -5.68271,0 0,1.47321 4.26203,5.89284 -4.26203,1.4732 2.84135,33.88381 c 5.9356,0.11491 7.67451,2.96851 8.52407,8.83925 30.65967,11.46009 60.21547,31.60033 82.16921,56.19113 13.53623,15.16374 25.82794,28.48744 4.49219,45.46028 2.64246,-9.10296 17.36637,-21.96997 4.26203,-29.46418 l -9.94475,8.83925 c -1.80284,9.39318 -9.0483,18.86739 -17.04814,23.57135 -1.35107,-7.45886 -1.28429,-12.67402 3.11129,-19.1252 2.0685,-3.03481 8.07371,-7.24082 5.41278,-10.33898 l 2.84136,-4.41963 -12.78611,0 0,2.94642 -7.10339,-1.47321 -4.26204,-2.94642 -5.68271,8.83926 c -1.18485,-5.70279 -6.47261,-4.14267 -11.36543,-4.41963 l -1.42068,16.2053 -1.42068,0 0,-11.78567 -2.84135,0 1.42067,14.73208 -8.52407,0 24.15154,26.51776 -12.78611,-7.36604 1.42068,-2.94642 -5.68271,-1.47321 -1.42068,4.41963 c 14.6614,10.71023 29.45208,29.86489 32.6756,48.61589 l 5.68272,0 5.54917,28.01306 -9.81121,32.3885 -1.42068,0 c 0,-22.07898 2.10119,-49.04754 -18.46882,-61.87477 l 1.42068,50.0891 c -8.01405,1.77227 -5.68271,15.35526 -5.68271,22.09813 l 1.42068,0 c 9.26566,-20.42456 11.36542,-37.92923 11.36542,-60.40156 l 2.84136,0 c 0,31.04493 5.00789,56.4843 -2.84136,86.91932 13.13986,-5.884 25.75833,-17.62694 35.7528,-28.10293 29.01026,-30.40703 45.71033,-69.94353 40.70244,-113.32511 -1.71334,-14.83374 -6.94001,-29.3478 -8.82667,-44.19627 -1.26157,-9.94121 1.64514,-20.6043 0.97458,-30.51605 -0.91492,-13.53584 -5.3318,-23.52272 -1.83125,-37.25155 l -2.84136,0 0,-2.94642 5.68271,-2.94642 0,5.89284 2.84136,0 -4.26203,-29.46418 -2.84136,1.47321 -1.42068,-4.41963 -1.42068,0 -2.84136,-4.41962 0,-1.47321 0,-1.47321 c 11.32992,-8.98466 -9.07245,-33.24045 -15.2865,-40.829246 C 572.0683,64.425784 534.21858,46.16374 494.61575,31.925766 Z"
       style="fill:#bababa;stroke:none" />
    <path
       inkscape:connector-curvature="0"
       id="path124"
       d="m 324.13432,52.55069 0,1.473208 71.03393,-1.473208 -2.84136,13.258879 11.36543,1.473209 0,7.366044 c 16.96716,0.208017 15.91586,17.061967 17.04814,30.937388 l -2.84136,-2.94642 -4.26203,2.94642 0,16.20529 7.10339,4.41963 -4.26204,2.94642 9.94475,-1.47321 -4.26203,2.94642 0,1.4732 4.26203,0 c -1.6082,6.07007 -4.01483,7.38977 -9.94475,7.36605 l 4.26204,4.41963 c -1.29992,10.29036 22.37853,19.19591 31.25493,22.09813 l -2.84136,2.94641 0,1.47321 7.10339,-2.94641 8.52408,1.4732 0,13.25888 2.84135,0 0,-11.78567 2.84136,0 0,11.78567 12.78611,-2.94641 0,22.09813 -1.42068,0 -1.42068,-4.41963 -2.84136,0 -4.26203,20.62493 -1.42068,0 -1.42068,-2.94642 c -8.61499,16.74449 4.98374,40.38654 24.15154,36.83022 5.37869,10.3375 30.58721,16.39092 41.19967,16.20529 l -1.42067,-14.73208 2.84135,0 0,11.78567 1.42068,0 1.42068,-16.2053 11.36543,4.41963 5.68271,-8.83926 4.26204,2.94642 7.10339,1.47321 0,-2.94642 12.78611,0 -2.84136,2.94642 0,1.47321 c 9.8311,-1.81057 14.46819,-4.67891 24.15154,0 l 1.42068,-1.47321 c -8.80821,-17.83319 -25.78532,-26.96267 -40.47656,-38.63343 -17.794,-14.13544 -34.36479,-29.35958 -57.55027,-35.02701 -0.47308,-6.34511 -2.15374,-9.08675 -8.52407,-8.83925 l -2.84135,-33.88381 4.26203,-1.4732 -4.26203,-5.89284 0,-1.47321 5.68271,0 8.52407,-35.357009 0,-1.473209 -2.84136,-2.946418 11.36543,0 C 509.08394,69.746867 485.85442,65.830636 471.88489,61.821887 426.12909,48.69103 371.10195,43.508576 324.13432,52.55069 Z"
       style="fill:#d7d7d7;stroke:none" />
    <path
       inkscape:connector-curvature="0"
       id="path234"
       d="M 558.54628,99.693371 596.9046,130.63076 C 590.99316,118.5251 571.27982,102.79639 558.54628,99.693371 Z"
       style="fill:#ab96d1;stroke:none" />
    <path
       inkscape:connector-curvature="0"
       id="path316"
       d="m 619.63546,133.57717 -4.26204,5.89284 0,1.47321 0,1.47321 2.84136,4.41962 1.42068,0 1.42068,-2.94641 0,7.36604 2.84136,-1.47321 4.26203,29.46418 -2.84136,0 0,-5.89284 -5.68271,2.94642 2.84136,2.94642 1.18768,37.25155 7.33639,71.7659 1.42068,0 c 0,-35.68701 1.88098,-70.43264 -1.31413,-106.07104 -1.31981,-14.71588 -2.30718,-36.72267 -11.47198,-48.61589 z"
       style="fill:#d7d7d7;stroke:none" />
    <path
       inkscape:connector-curvature="0"
       id="path318"
       d="m 96.825747,182.19306 0,94.28537 1.420679,0 0,-64.82119 -1.420679,-29.46418 z"
       style="fill:#ba98c9;stroke:none" />
    <path
       inkscape:connector-curvature="0"
       id="path342"
       d="m 351.12721,235.22858 0,1.47321 7.10339,0 -7.10339,-1.47321 z"
       style="fill:#d7d7d7;stroke:none" />
    <path
       inkscape:connector-curvature="0"
       id="path344"
       d="m 358.2306,235.22858 0,1.47321 38.35832,0 -38.35832,-1.47321 z"
       style="fill:#7f8694;stroke:none" />
    <path
       inkscape:connector-curvature="0"
       id="path356"
       d="m 342.60314,236.70179 0,1.47321 8.52407,0 -8.52407,-1.47321 z"
       style="fill:#6f6d71;stroke:none" />
    <path
       inkscape:connector-curvature="0"
       id="path358"
       d="m 331.23771,239.64821 0,1.47321 7.10339,0 0,1.47321 -5.68271,4.41962 29.83425,-1.47321 0,1.47321 -32.67561,5.89284 0,1.47321 11.36543,0 0,1.4732 c -13.14128,5.224 -35.01404,5.17244 -41.19968,20.62493 l 71.03393,-16.2053 c -5.84041,18.30609 -26.794,19.68502 -42.62036,22.09813 l 0,1.47321 73.87529,-2.94642 c 2.74759,-21.31585 16.54238,-13.80986 28.41357,-7.36604 l -2.84136,-5.89284 5.68272,0 1.42068,7.36605 -5.68272,0 -4.26203,13.25888 22.73085,0 0,1.47321 -4.26203,-1.47321 2.84135,2.94642 c -2.07134,8.99541 -1.59826,17.12605 -12.7861,14.73208 l 2.84135,-11.78567 -2.84135,0 1.42068,-4.41962 c -16.23126,14.01758 2.06424,27.26909 17.04814,17.6785 l -5.68272,10.31246 7.1034,-2.94641 -4.26204,4.41962 2.84136,16.2053 -4.26204,-1.47321 0,1.47321 c 8.64909,4.3165 16.84925,3.70512 21.31018,-5.89284 l 5.68272,1.47321 0,-1.47321 -2.84136,-8.83925 -18.46882,-10.31246 0,-1.47321 0,-8.83925 8.52407,0 0,-1.47321 -7.10339,-8.83925 -4.26204,1.47321 c 6.86046,-15.07388 15.92155,-7.00806 22.73086,2.94641 2.1026,-7.17747 4.81894,-20.47613 -0.0341,-27.13061 -3.37553,-4.62735 -8.38768,-5.47886 -11.33133,-11.17282 l 5.68271,1.47321 c 1.21184,-1.63379 28.62526,12.38674 34.09629,15.76334 36.8041,22.71246 55.28713,50.89052 65.35121,93.25411 l 1.42068,0 c -3.54317,-28.91761 -10.41073,-52.95596 -31.09013,-74.0361 -7.61341,-7.75939 -16.57648,-14.56415 -25.73701,-20.22716 -4.64846,-2.87276 -10.93212,-4.77909 -12.78611,-10.33456 -41.56195,-14.58035 -79.37473,-25.04455 -123.59903,-25.04455 -14.05194,0 -30.52754,-1.19625 -44.04104,2.94642 z"
       style="fill:#434248;stroke:none" />
    <path
       inkscape:connector-curvature="0"
       id="path360"
       d="m 403.69232,236.70179 0,1.47321 8.52407,0 -8.52407,-1.47321 z"
       style="fill:#bababa;stroke:none" />
    <path
       inkscape:connector-curvature="0"
       id="path364"
       d="m 417.8991,238.175 0,1.47321 5.68272,0 -5.68272,-1.47321 z"
       style="fill:#bababa;stroke:none" />
    <path
       inkscape:connector-curvature="0"
       id="path368"
       d="m 261.62446,257.32671 0,5.89284 12.78611,-1.47321 -1.42068,-2.94642 38.35832,-10.31246 c -9.72454,9.06613 -30.08713,12.48986 -42.62036,16.2053 l -12.07576,10.80304 -2.13102,20.13434 c 9.40347,-5.42288 19.01862,-9.53313 26.99289,1.47321 l 5.68272,-5.89283 17.04814,0 -11.36543,-10.31247 -1.42068,8.83926 -5.68271,0 0,-7.36605 -4.26204,5.89284 -1.42068,0 -1.42068,-2.94642 -11.36542,0 19.8895,-20.62492 -12.78611,17.6785 11.36543,-7.36604 5.68271,-2.94642 1.42068,0 1.42068,2.94642 1.42068,0 45.46171,-19.15172 0,-1.4732 -11.36543,0 0,-1.47321 32.67561,-5.89284 0,-1.47321 -29.83425,1.47321 5.68271,-4.41962 c -20.38531,-10.15925 -56.1921,9.48599 -76.71664,14.73208 z"
       style="fill:#57575f;stroke:none" />
    <path
       inkscape:connector-curvature="0"
       id="path372"
       d="m 434.94725,241.12142 0,1.47321 5.68271,0 -5.68271,-1.47321 z"
       style="fill:#bababa;stroke:none" />
    <path
       inkscape:connector-curvature="0"
       id="path376"
       d="m 307.08618,242.59463 0,1.4732 4.26203,0 -4.26203,-1.4732 z"
       style="fill:#bababa;stroke:none" />
    <path
       inkscape:connector-curvature="0"
       id="path378"
       d="m 442.99823,243.0852 0.94617,0.49206 -0.94617,-0.49206 z"
       style="fill:#ab96d1;stroke:none" />
    <path
       inkscape:connector-curvature="0"
       id="path382"
       d="m 301.40346,244.06783 0,1.47321 4.26204,0 -4.26204,-1.47321 m 148.69816,0.49058 0.94618,0.49205 -0.94618,-0.49205 z"
       style="fill:#bababa;stroke:none" />
    <path
       inkscape:connector-curvature="0"
       id="path384"
       d="m 454.36366,246.03162 0.94617,0.49205 -0.94617,-0.49205 z"
       style="fill:#7f8694;stroke:none" />
    <path
       inkscape:connector-curvature="0"
       id="path386"
       d="m 569.91171,269.11238 26.99289,-19.15171 0,-2.94642 c -12.85856,-3.62851 -25.62194,9.25765 -26.99289,22.09813 z"
       style="fill:#6f6d71;stroke:none" />
    <path
       inkscape:connector-curvature="0"
       id="path388"
       d="m 165.01832,251.43388 c -4.07167,-3.14236 -10.2985,-5.75141 -15.41578,-3.52539 -3.03742,1.31999 -5.58469,6.53663 -1.17491,8.01573 4.81895,1.61464 11.63252,-3.82003 16.59069,-4.49034 z"
       style="fill:#bababa;stroke:none" />
    <path
       inkscape:connector-curvature="0"
       id="path390"
       d="m 270.14853,254.3803 0,1.4732 25.57222,-7.36604 c -7.67877,-2.84919 -18.44325,2.61642 -25.57222,5.89284 z"
       style="fill:#87788d;stroke:none" />
    <path
       inkscape:connector-curvature="0"
       id="path392"
       d="m 459.09878,247.01425 0,1.47321 4.26204,0 -4.26204,-1.47321 z"
       style="fill:#ab96d1;stroke:none" />
    <path
       inkscape:connector-curvature="0"
       id="path396"
       d="m 272.98989,258.79992 1.42068,2.94642 -11.36543,5.89283 c 11.53307,-3.27052 41.34317,-9.34898 48.30307,-19.15171 l -38.35832,10.31246 z"
       style="fill:#434248;stroke:none" />
    <path
       inkscape:connector-curvature="0"
       id="path398"
       d="m 464.30841,248.97804 0.94617,0.49205 -0.94617,-0.49205 z"
       style="fill:#7f8694;stroke:none" />
    <path
       inkscape:connector-curvature="0"
       id="path400"
       d="m 602.58732,248.48746 -9.94475,27.99097 c 10.77016,-5.67186 12.779,-16.50583 12.7861,-27.99097 l -2.84135,0 z"
       style="fill:#efeeef;stroke:none" />
    <path
       inkscape:connector-curvature="0"
       id="path404"
       d="m 467.62285,249.96067 0,1.47321 4.26204,0 -4.26204,-1.47321 z"
       style="fill:#7f8694;stroke:none" />
    <path
       inkscape:connector-curvature="0"
       id="path408"
       d="m 143.70814,251.43388 c -2.85841,10.80451 4.67972,23.7496 15.62746,25.04455 l 8.52408,-25.04455 c -8.83236,0.10165 -17.04388,7.28502 -24.15154,0 z"
       style="fill:#d7d7d7;stroke:none" />
    <path
       inkscape:connector-curvature="0"
       id="path410"
       d="m 474.25316,251.92446 0.94617,0.49205 -0.94617,-0.49205 z"
       style="fill:#bababa;stroke:none" />
    <path
       inkscape:connector-curvature="0"
       id="path412"
       d="m 569.91171,266.16597 -1.42068,0 1.42068,13.25888 c 8.84088,-3.43405 16.02383,-13.97634 17.04814,-23.57135 l 5.68272,-4.41962 -22.73086,14.73209 z"
       style="fill:#7f8694;stroke:none" />
    <path
       inkscape:connector-curvature="0"
       id="path416"
       d="m 467.62285,257.32671 -5.68271,-1.47321 11.94933,13.47545 0.83678,36.61365 c 18.72028,8.48569 34.07071,23.99268 45.46171,41.24985 l 1.42068,0 c -2.28871,-12.48986 -7.06362,-38.5082 -19.8895,-42.72306 -0.61658,-8.80831 -6.67435,-20.60282 -14.20679,-25.04454 l 0,-2.94642 17.04815,-1.47321 -26.95312,-13.1366 -7.14317,-8.30743 -2.84136,3.76552 z"
       style="fill:#57575f;stroke:none" />
    <path
       inkscape:connector-curvature="0"
       id="path418"
       d="m 478.5152,253.39767 0.94617,0.49205 -0.94617,-0.49205 m -210.26043,1.4732 0.94617,0.49206 -0.94617,-0.49206 z"
       style="fill:#bababa;stroke:none" />
    <path
       inkscape:connector-curvature="0"
       id="path420"
       d="m 481.35655,254.87087 0.94617,0.49206 -0.94617,-0.49206 z"
       style="fill:#ab96d1;stroke:none" />
    <path
       inkscape:connector-curvature="0"
       id="path426"
       d="m 176.38375,342.77282 1.42068,0 c 16.28523,-42.42694 48.52469,-61.72597 85.24071,-82.49969 -8.615,-2.45142 -21.0573,7.12149 -28.41357,11.38938 -24.85619,14.41977 -53.85082,40.2407 -58.24782,71.11031 z"
       style="fill:#2e1f2d;stroke:none" />
    <path
       inkscape:connector-curvature="0"
       id="path430"
       d="m 318.4516,269.11238 8.52408,14.73209 c 15.21972,-4.47855 40.14553,-3.52244 44.04103,-23.57134 l -52.56511,8.83925 z"
       style="fill:#57575f;stroke:none" />
    <path
       inkscape:connector-curvature="0"
       id="path436"
       d="m 258.7831,261.74634 c -0.0852,9.66572 -10.15359,12.44714 -17.09786,16.77985 -6.86898,4.28409 -12.88982,10.25942 -19.83978,14.2253 -11.25888,6.42614 -22.1157,6.59261 -28.41357,20.55716 l 9.94475,-2.94642 9.94475,-7.36604 0,1.4732 c -11.0202,7.5944 -2.27593,23.45054 -9.94475,33.88381 l 0,-11.78567 c -9.67908,3.29556 -26.93607,34.77951 -11.36543,38.30343 l 7.10339,38.30342 1.42068,0 2.84136,-11.78567 0,-8.83925 -4.26204,-5.89283 4.26204,4.41962 8.58942,-23.57134 12.72076,-23.57134 -18.46882,14.73209 c 0.98737,-18.74511 30.43804,-50.17749 48.30307,-51.56231 1.19905,-15.7486 2.10402,-21.5722 15.62746,-29.46418 l 0,-1.4732 -7.10339,1.4732 4.26204,-4.41962 0,-1.47321 -8.52408,0 z"
       style="fill:#6f6d71;stroke:none" />
    <path
       inkscape:connector-curvature="0"
       id="path440"
       d="m 203.37664,301.52298 c 16.24688,-10.64099 46.77868,-18.22802 56.82714,-36.83022 -15.73117,-2.77847 -50.20536,22.73897 -56.82714,36.83022 z"
       style="fill:#57575f;stroke:none" />
    <path
       inkscape:connector-curvature="0"
       id="path442"
       d="m 497.4571,263.21955 0,1.47321 32.6202,21.98027 19.94491,16.32316 c -10.89092,-16.03146 -33.51807,-35.9684 -52.56511,-39.77664 z"
       style="fill:#2b2c2e;stroke:none" />
    <path
       inkscape:connector-curvature="0"
       id="path446"
       d="m 281.51396,266.16597 2.84136,4.41962 -7.10339,0 -9.94475,14.73209 7.10339,-1.47321 -2.84136,2.94642 0,1.47321 7.10339,-5.89284 -4.26203,-1.47321 12.78611,-16.20529 -5.68272,1.47321 m 123.59904,19.15171 1.42067,0 c 0.006,-7.43234 -0.10797,-12.67696 5.68272,-17.67851 l -2.84136,4.41963 c 5.92281,0.5392 9.51997,-0.63201 12.78611,-5.89283 -14.2423,-4.3224 -18.42762,6.13886 -17.04814,19.15171 z"
       style="fill:#7f8694;stroke:none" />
    <path
       inkscape:connector-curvature="0"
       id="path448"
       d="m 453.88915,265.67539 0.47451,0.98115 -0.47451,-0.98115 z"
       style="fill:#bababa;stroke:none" />
    <path
       inkscape:connector-curvature="0"
       id="path460"
       d="m 243.15564,266.16597 1.42068,1.4732 -1.42068,-1.4732 z"
       style="fill:#7f8694;stroke:none" />
    <path
       inkscape:connector-curvature="0"
       id="path462"
       d="m 422.16114,266.16597 -4.26204,4.41962 c 2.12392,7.70488 0.88651,10.82956 -7.10339,8.83926 l 1.42068,-11.78568 c -8.97301,5.13119 -5.04341,13.85406 0,20.62493 l -7.10339,-2.94642 c 4.75501,4.9765 9.32391,3.45762 15.62746,2.94642 l 4.26204,-5.89284 -1.42068,4.41963 5.68271,-11.78567 5.68272,0 -7.1034,-7.36605 2.84136,5.89284 -8.52407,-7.36604 z"
       style="fill:#797898;stroke:none" />
    <path
       inkscape:connector-curvature="0"
       id="path466"
       d="m 281.51396,267.63917 0,2.94642 2.84136,0 0,-2.94642 -2.84136,0 m 147.75057,0 4.26204,2.94642 -4.26204,-2.94642 z"
       style="fill:#bababa;stroke:none" />
    <path
       inkscape:connector-curvature="0"
       id="path468"
       d="m 309.92753,269.11238 0,1.47321 15.62747,5.89284 c -3.42952,-6.60734 -8.80253,-7.21431 -15.62747,-7.36605 m 146.32989,0 0,2.94642 2.84136,0 0,-2.94642 -2.84136,0 z"
       style="fill:#ab96d1;stroke:none" />
    <path
       inkscape:connector-curvature="0"
       id="path472"
       d="m 302.82414,280.89805 -7.10339,0 0,2.94642 c 6.68571,2.0787 14.26503,17.14521 21.31018,8.83925 -12.52755,-0.21066 -13.90561,-12.94213 -5.68272,-20.62492 -5.76653,-1.21982 -7.73133,3.57548 -8.52407,8.83925 z"
       style="fill:#d7d7d7;stroke:none" />
    <path
       inkscape:connector-curvature="0"
       id="path474"
       d="m 309.92753,275.00522 14.20679,8.83925 -5.68272,7.36605 -1.42067,-4.41963 c -3.84294,0.51415 -6.54223,1.56602 -7.1034,-2.94642 l -1.42068,0 2.84136,10.31246 5.68272,-1.47321 0,2.94642 c 9.15769,-3.30883 9.91917,-9.99867 9.94475,-19.15171 -5.68556,-1.3362 -12.86567,-7.34395 -17.04815,-1.47321 z"
       style="fill:#bababa;stroke:none" />
    <path
       inkscape:connector-curvature="0"
       id="path478"
       d="m 291.45871,272.0588 -5.68271,2.94642 -5.68272,13.25888 1.42068,0 c 3.74491,-6.75024 19.36101,-6.90788 9.94475,-16.2053 z"
       style="fill:#434248;stroke:none" />
    <path
       inkscape:connector-curvature="0"
       id="path480"
       d="m 295.72075,272.0588 0,2.94642 5.68271,0 0,-2.94642 -5.68271,0 z"
       style="fill:#d7d7d7;stroke:none" />
    <path
       inkscape:connector-curvature="0"
       id="path482"
       d="m 403.69232,272.0588 0,10.31246 1.42068,0 -1.42068,-10.31246 z"
       style="fill:#bababa;stroke:none" />
    <path
       inkscape:connector-curvature="0"
       id="path484"
       d="m 410.79571,279.42485 c 5.00931,2.05807 8.05525,2.88454 9.94475,-2.94642 l -1.42068,0 -1.42068,2.94642 -1.42068,-7.36605 -5.68271,7.36605 z"
       style="fill:#d7d7d7;stroke:none" />
    <path
       inkscape:connector-curvature="0"
       id="path486"
       d="m 416.47842,272.0588 2.84136,7.36605 0,-7.36605 -2.84136,0 z"
       style="fill:#efeeef;stroke:none" />
    <path
       inkscape:connector-curvature="0"
       id="path490"
       d="m 307.08618,273.53201 c -2.06709,7.25113 -2.77601,15.12691 4.26203,19.15171 l -1.42068,-19.15171 -2.84135,0 z"
       style="fill:#7f8694;stroke:none" />
    <path
       inkscape:connector-curvature="0"
       id="path492"
       d="m 311.34821,273.53201 c -1.20616,5.21663 -0.39069,7.78296 4.26204,10.31246 l -4.26204,-10.31246 z"
       style="fill:#d7d7d7;stroke:none" />
    <path
       inkscape:connector-curvature="0"
       id="path494"
       d="m 402.27164,273.53201 0,7.36604 1.42068,0 -1.42068,-7.36604 z"
       style="fill:#6f6d71;stroke:none" />
    <path
       inkscape:connector-curvature="0"
       id="path498"
       d="m 295.72075,275.00522 0,1.47321 5.68271,1.47321 -5.68271,-2.94642 m 153.43328,0 0,4.41963 2.84136,0 0,-4.41963 -2.84136,0 z"
       style="fill:#ab96d1;stroke:none" />
    <path
       inkscape:connector-curvature="0"
       id="path500"
       d="m 451.99539,275.00522 -2.84136,4.41963 0,1.4732 7.10339,0 0,-1.4732 -1.42067,-4.41963 -2.84136,0 z"
       style="fill:#6f6d71;stroke:none" />
    <path
       inkscape:connector-curvature="0"
       id="path502"
       d="m 454.83675,275.00522 -1.42068,4.41963 1.42068,-4.41963 z"
       style="fill:#bababa;stroke:none" />
    <path
       inkscape:connector-curvature="0"
       id="path504"
       d="m 487.51235,276.47843 0,2.94642 c 6.61468,5.78971 12.95375,16.14489 14.20679,25.04454 14.93559,7.85073 20.08981,41.61815 26.66756,57.5126 2.39952,5.80003 2.32565,12.34549 7.42872,16.14784 l -16.14317,-50.09499 -8.00836,-36.82432 14.20678,0 c -7.17158,-13.78482 -24.65729,-17.51351 -38.35832,-14.73209 z"
       style="fill:#6f6d71;stroke:none" />
    <path
       inkscape:connector-curvature="0"
       id="path508"
       d="m 295.72075,276.47843 5.68271,2.94642 0,-1.47321 -5.68271,-1.47321 z"
       style="fill:#d7d7d7;stroke:none" />
    <path
       inkscape:connector-curvature="0"
       id="path510"
       d="m 301.40346,276.47843 -5.68271,2.94642 0,1.4732 c 3.48066,-0.17678 7.23835,-0.13995 5.68271,-4.41962 z"
       style="fill:#797898;stroke:none" />
    <path
       inkscape:connector-curvature="0"
       id="path512"
       d="m 314.18957,276.47843 1.42068,7.36604 -7.1034,-2.94642 1.42068,7.36605 c 7.1105,-1.57634 9.89219,-5.97976 4.26204,-11.78567 z"
       style="fill:#efeeef;stroke:none" />
    <path
       inkscape:connector-curvature="0"
       id="path514"
       d="m 465.25458,278.93427 0.47451,0.98115 -0.47451,-0.98115 z"
       style="fill:#ab96d1;stroke:none" />
    <path
       inkscape:connector-curvature="0"
       id="path522"
       d="m 326.97568,283.84447 c -5.87593,17.77427 -16.02952,7.3793 -28.41358,8.83925 2.49045,3.97619 6.35754,8.23671 6.29503,13.25888 -0.22305,17.88623 -17.382,14.78218 -24.76385,4.41963 -11.55722,3.13646 -21.44372,0.54951 -32.6756,6.51748 -27.59811,14.6599 -53.78405,63.37155 -42.62036,95.13393 l 1.42068,0 0,-13.25888 1.42068,0 c 0.23867,29.95475 18.25145,47.95736 31.25492,72.18723 l 26.9929,14.73209 -1.42068,-7.36605 c -29.7277,2.99062 -27.77569,-47.07344 -48.30307,-54.50872 l -2.84136,-11.78567 c 6.8775,-6.2965 -6.33481,-22.33974 4.26204,-29.46418 l -1.42068,-13.25888 c 4.33875,-0.96348 4.17111,-2.95673 4.26203,-7.36604 l 4.26204,1.47321 8.52407,-4.41963 0,5.89284 7.10339,-1.47321 9.94475,26.51776 -4.26203,0 0,4.41962 9.94475,1.47321 0,-44.19626 1.42068,0 1.42067,38.30343 1.42068,0 0,-8.83926 1.42068,0 1.42068,8.83926 1.42068,0 c 13.93686,-22.28671 36.12359,14.0603 14.14996,19.4876 -3.97364,0.98116 -8.78974,-1.06071 -12.72928,-1.8091 0.25288,2.46763 0.5157,4.92494 0.67198,7.40288 1.61105,25.49387 16.46992,-15.53352 27.28271,0.0648 11.0202,15.90034 -4.60016,30.67662 -16.58926,14.63043 l -1.42068,0 -7.1034,5.89284 1.42068,2.94642 c -5.51791,2.0124 -5.55059,6.1639 -5.68271,11.78567 l 1.42068,0 1.42068,-2.94642 c 8.7258,14.46838 21.04167,25.89312 35.51696,33.8838 0.79416,-12.2733 7.4614,-16.07123 18.46882,-14.73209 l 4.26204,-14.73208 c -6.54365,1.13142 -10.42778,7.85809 -17.04673,8.34278 -12.67245,0.92664 -15.43425,-16.65758 -6.94996,-23.70393 10.59969,-8.80537 39.75201,12.13776 45.30687,22.72719 l 9.94475,-4.41963 c -0.24862,15.79133 -20.46204,13.42683 -24.15154,26.51776 l -15.62746,7.36605 c 13.80757,10.82513 35.83377,12.51343 52.5651,13.25887 l 0,1.47321 -46.88239,1.47321 0,1.47321 24.15154,0 0,1.47321 -11.36543,1.47321 0,2.94642 c 26.24703,0.56129 52.71854,4.04985 78.13732,-4.41963 l -1.42068,-4.41963 9.94475,-2.94641 0,-1.47321 -11.36543,0 0,-1.47321 25.57221,-11.78567 0,-1.47321 c -7.91175,-1.66031 -12.35422,-6.65596 -14.20678,-14.73209 -8.72439,3.18508 -12.53323,2.5899 -21.31018,0 l 1.42068,5.89284 -5.68272,0 0,7.36604 -2.84135,0 0,-17.67851 1.42068,0 2.84135,2.94642 5.68272,-17.6785 -1.42068,5.89283 8.52407,-11.78567 9.94475,1.47321 0,-7.36604 1.42068,0 0,4.41962 1.42068,0 c 1.56701,-10.31099 9.27987,-13.36053 18.46882,-13.25888 l 0,-1.47321 -7.10339,-1.4732 7.10339,-14.73209 2.84136,0 0,10.31246 1.42067,0 4.26204,-8.83925 -2.84136,1.4732 0,-1.4732 2.84136,-8.83926 9.94475,0 0,-1.47321 -12.78611,0 2.84136,-10.31246 c 10.80994,2.00946 16.00252,-34.29041 25.57221,-8.83925 l 2.84136,0 c 2.98485,-10.47009 3.54317,-34.05322 -7.10339,-39.77664 l 0,19.15172 4.26203,-2.94642 c -4.34727,6.04899 -8.30244,8.75823 -15.62746,7.36604 l 1.42068,-23.57134 -7.10339,4.41963 -2.84136,0 -4.26204,-14.73209 4.26204,1.47321 -2.84136,-16.2053 4.26204,-4.41962 -9.94475,8.83925 c -10.76164,-8.56524 -17.47435,-19.98702 -14.20679,-33.8838 l -17.02683,0.31526 -27.0142,-10.49661 -58.24782,4.28851 z"
       style="fill:#2b2c2e;stroke:none" />
    <path
       inkscape:connector-curvature="0"
       id="path524"
       d="m 288.14427,281.38863 0.94617,0.49205 -0.94617,-0.49205 z"
       style="fill:#7f8694;stroke:none" />
    <path
       inkscape:connector-curvature="0"
       id="path526"
       d="m 456.25742,280.89805 0,1.47321 7.1034,0 -7.1034,-1.47321 z"
       style="fill:#87788d;stroke:none" />
    <path
       inkscape:connector-curvature="0"
       id="path528"
       d="m 285.776,282.37126 0,7.36605 4.26203,-1.47321 -4.26203,-5.89284 z"
       style="fill:#ab96d1;stroke:none" />
    <path
       inkscape:connector-curvature="0"
       id="path530"
       d="m 287.19668,282.37126 0,2.94642 4.26203,0 0,-2.94642 -4.26203,0 z"
       style="fill:#d7d7d7;stroke:none" />
    <path
       inkscape:connector-curvature="0"
       id="path532"
       d="m 406.53367,282.37126 5.68272,5.89284 -5.68272,-5.89284 z"
       style="fill:#434248;stroke:none" />
    <path
       inkscape:connector-curvature="0"
       id="path534"
       d="m 422.16114,282.37126 -1.42068,5.89284 -9.94475,1.47321 0,1.47321 14.20679,-2.94642 0,-5.89284 -2.84136,0 z"
       style="fill:#57575f;stroke:none" />
    <path
       inkscape:connector-curvature="0"
       id="path536"
       d="m 450.57471,291.21052 11.36543,-4.41963 0,-1.47321 -4.26204,0 0,-1.47321 5.68272,0 c -6.50671,-2.71954 -10.94633,0.79111 -12.78611,7.36605 z"
       style="fill:#bababa;stroke:none" />
    <path
       inkscape:connector-curvature="0"
       id="path538"
       d="m 216.16275,283.84447 1.42068,1.47321 -1.42068,-1.47321 z"
       style="fill:#87788d;stroke:none" />
    <path
       inkscape:connector-curvature="0"
       id="path540"
       d="m 271.56921,283.84447 0,2.94642 2.84136,0 0,-2.94642 -2.84136,0 z"
       style="fill:#d7d7d7;stroke:none" />
    <path
       inkscape:connector-curvature="0"
       id="path542"
       d="m 277.25193,283.84447 -1.42068,4.41963 1.42068,-4.41963 z"
       style="fill:#bababa;stroke:none" />
    <path
       inkscape:connector-curvature="0"
       id="path544"
       d="m 318.4516,283.84447 0,7.36605 5.68272,-7.36605 -5.68272,0 z"
       style="fill:#7f8694;stroke:none" />
    <path
       inkscape:connector-curvature="0"
       id="path546"
       d="m 457.6781,283.84447 0,1.47321 9.94475,10.31246 c 2.79448,-7.7476 -3.23204,-11.25973 -9.94475,-11.78567 z"
       style="fill:#efeeef;stroke:none" />
    <path
       inkscape:connector-curvature="0"
       id="path548"
       d="m 464.7815,283.84447 4.26203,11.78567 -1.42068,0 0,-4.41962 -1.42068,0 c -1.98042,6.91671 -6.14585,8.46211 -12.7861,8.83925 l 1.42068,5.89283 c 10.361,-2.48677 25.80378,-13.46807 9.94475,-22.09813 z"
       style="fill:#bababa;stroke:none" />
    <path
       inkscape:connector-curvature="0"
       id="path552"
       d="m 432.10589,288.2641 0,1.47321 7.10339,-1.47321 0,1.47321 -2.84136,0 0,1.47321 7.1034,-2.94642 4.26203,1.47321 c -5.08176,-4.56253 -9.62936,-4.04543 -15.62746,-1.47321 z"
       style="fill:#7f8694;stroke:none" />
    <path
       inkscape:connector-curvature="0"
       id="path554"
       d="m 290.03803,286.79089 -1.42068,2.94642 2.84136,0 -1.42068,-2.94642 z"
       style="fill:#d7d7d7;stroke:none" />
    <path
       inkscape:connector-curvature="0"
       id="path556"
       d="m 458.12278,287.97093 c -6.29361,2.6282 -1.35249,12.34402 4.79194,9.65246 5.97964,-2.62084 0.99164,-12.06705 -4.79194,-9.65246 z"
       style="fill:#393b43;stroke:none" />
    <path
       inkscape:connector-curvature="0"
       id="path558"
       d="m 434.94725,288.2641 -1.42068,5.89283 2.84135,0 -1.42067,4.41963 8.52407,-4.41963 0,8.83926 -9.94475,1.4732 0,1.47321 c 11.53165,3.40606 11.11681,-5.40962 12.7861,-14.73208 l -9.94475,0 0,-1.47321 2.84136,0 -4.26203,-1.47321 z"
       style="fill:#797898;stroke:none" />
    <path
       inkscape:connector-curvature="0"
       id="path562"
       d="m 209.05935,289.73731 1.42068,1.47321 -1.42068,-1.47321 z"
       style="fill:#7f8694;stroke:none" />
    <path
       inkscape:connector-curvature="0"
       id="path564"
       d="m 258.7831,301.52298 7.1034,-11.78567 c -6.04641,0.82794 -14.65999,6.13296 -7.1034,11.78567 z"
       style="fill:#393b43;stroke:none" />
    <path
       inkscape:connector-curvature="0"
       id="path566"
       d="m 260.20378,305.9426 11.36543,4.41963 0,1.47321 -4.26203,0 0,1.47321 c 8.9389,-0.48174 13.52628,-4.1736 15.62746,-13.25888 l 1.42068,0 4.26203,1.47321 8.52408,1.47321 4.26203,5.89283 c -0.80126,-5.19453 -1.92928,-7.12444 -7.10339,-7.36604 l -2.84136,-7.36605 -9.94475,2.94642 c -7.60773,-14.65695 -20.93938,-4.09994 -21.31018,8.83925 z"
       style="fill:#bababa;stroke:none" />
    <path
       inkscape:connector-curvature="0"
       id="path568"
       d="m 429.26453,289.73731 -1.42068,14.73208 1.42068,0 4.26204,-14.73208 -4.26204,0 z"
       style="fill:#6f6d71;stroke:none" />
    <path
       inkscape:connector-curvature="0"
       id="path574"
       d="m 287.19668,295.63014 4.26203,-4.41962 -4.26203,4.41962 z"
       style="fill:#efeeef;stroke:none" />
    <path
       inkscape:connector-curvature="0"
       id="path576"
       d="m 291.45871,291.21052 2.84136,10.31246 c 4.84167,0.56129 5.94838,2.57517 7.10339,7.36604 l -7.10339,2.94642 -5.68272,0 0,-4.41963 -1.42067,0 -4.26204,-1.47321 c 0.68619,9.36225 5.75659,11.57353 14.20679,11.78567 l 2.84135,-7.36604 4.26204,1.47321 c 2.53733,-11.48514 -2.92944,-16.56476 -12.78611,-20.62492 z"
       style="fill:#ab96d1;stroke:none" />
    <path
       inkscape:connector-curvature="0"
       id="path578"
       d="m 511.66389,291.21052 8.00836,38.28133 16.14317,48.63798 -4.26203,-1.4732 -0.53844,47.14268 -15.08903,33.8838 c 26.16322,-14.84405 14.20395,-51.31186 18.46883,-75.13365 l 5.68271,16.2053 1.42068,0 0,-76.60686 9.94475,13.25888 1.42068,0 4.26203,-5.89284 2.84136,11.78567 c 1.77301,-8.08349 -4.12849,-15.70587 -8.2925,-22.09813 -10.98753,-16.86676 -19.79432,-27.99096 -40.01057,-27.99096 z"
       style="fill:#7f8694;stroke:none" />
    <path
       inkscape:connector-curvature="0"
       id="path580"
       d="m 473.30557,292.68372 c -4.84878,7.84484 -8.69029,10.41706 -17.04815,13.25888 2.86409,7.79328 12.42668,13.67138 19.8895,16.2053 l -1.42067,8.83925 -5.68272,-1.47321 c -6.15154,8.76118 -11.87829,9.45653 -21.31018,5.89284 l 4.26204,13.25888 2.84136,0 c 11.15801,-12.85817 16.18721,-0.74986 26.99289,2.94642 l 2.84136,69.24081 -1.42068,0 -1.42068,-26.51776 -17.04672,5.47739 -14.20821,-6.9506 -2.84136,10.31246 25.57222,8.83926 -5.68272,4.41962 0,1.47321 5.68272,0 0,1.47321 -2.84136,0 0,1.47321 4.26204,1.47321 0,1.47321 -8.52408,-1.47321 c -9.25856,8.87756 -17.45871,8.77001 -24.15153,-2.94642 l -2.84136,0 -4.26203,7.36605 21.31017,10.31246 -1.42067,8.83925 c -14.53923,2.3866 -25.76401,16.76364 -32.67561,-7.36604 l -1.42068,0 4.26204,25.04455 c 7.07498,-3.66682 11.25177,-4.80119 17.04814,1.4732 l 9.94475,-1.4732 -7.10339,4.41962 -1.42068,11.78567 5.68271,-1.47321 -1.42068,2.94642 1.42068,0 7.10339,-1.47321 -7.10339,13.25888 c 11.24893,-1.50709 43.82225,-9.01014 42.62036,-23.57134 26.10071,-9.38581 34.09771,-41.83913 36.12075,-66.16328 0.93339,-11.21112 5.12155,-22.50032 3.19085,-34.01492 -4.23789,-25.2891 -32.8191,-56.67581 -56.35974,-63.34798 l -1.42068,-13.25888 z"
       style="fill:#2e1f2d;stroke:none" />
    <path
       inkscape:connector-curvature="0"
       id="path582"
       d="m 440.62996,294.15693 -2.84136,7.36605 1.42068,0 4.26204,0 0,-7.36605 -2.84136,0 z"
       style="fill:#d7d7d7;stroke:none" />
    <path
       inkscape:connector-curvature="0"
       id="path584"
       d="m 274.41057,295.63014 4.26203,2.94642 -4.26203,-2.94642 z"
       style="fill:#6f6d71;stroke:none" />
    <path
       inkscape:connector-curvature="0"
       id="path586"
       d="m 312.76889,295.63014 0,1.47321 5.68271,0 -5.68271,-1.47321 m -106.55089,53.03552 56.82714,-38.30343 -2.84136,-11.78567 -1.42068,0 -1.42067,2.94642 c -7.81232,-8.51515 -15.15012,-0.38304 -21.69519,5.64091 -12.35138,11.37318 -29.00883,22.58724 -29.44924,41.50177 z"
       style="fill:#57575f;stroke:none" />
    <path
       inkscape:connector-curvature="0"
       id="path588"
       d="m 271.56921,297.10335 0,5.89284 7.10339,0 -7.10339,-5.89284 z"
       style="fill:#efeeef;stroke:none" />
    <path
       inkscape:connector-curvature="0"
       id="path590"
       d="m 284.35532,300.04977 4.26203,-2.94642 -4.26203,2.94642 z"
       style="fill:#797898;stroke:none" />
    <path
       inkscape:connector-curvature="0"
       id="path592"
       d="m 264.46582,298.57656 5.68271,8.83925 -5.68271,-8.83925 z"
       style="fill:#efeeef;stroke:none" />
    <path
       inkscape:connector-curvature="0"
       id="path594"
       d="m 434.94725,298.57656 c 1.03567,5.01333 3.98642,4.40047 8.52407,4.41963 l -4.26204,-1.47321 -4.26203,-2.94642 z"
       style="fill:#bababa;stroke:none" />
    <path
       inkscape:connector-curvature="0"
       id="path596"
       d="m 282.93464,300.04977 4.26204,8.83925 1.42067,-7.36604 -5.68271,-1.47321 m -86.66139,2.94642 1.42068,1.4732 -1.42068,-1.4732 z"
       style="fill:#6f6d71;stroke:none" />
    <path
       inkscape:connector-curvature="0"
       id="path598"
       d="m 203.37664,310.36223 c -13.11855,-0.54067 -20.97774,16.58686 -24.15154,27.99097 l 22.73086,-23.57134 -4.26203,16.20529 1.42067,0 4.26204,-4.41962 0,11.78567 9.94475,-33.88381 c -4.90702,-1.17709 -7.63046,1.56013 -9.94475,5.89284 z"
       style="fill:#7f8694;stroke:none" />
    <path
       inkscape:connector-curvature="0"
       id="path600"
       d="m 287.19668,304.46939 1.42067,7.36605 5.68272,0 2.84136,-8.83925 -9.94475,1.4732 z"
       style="fill:#efeeef;stroke:none" />
    <path
       inkscape:connector-curvature="0"
       id="path602"
       d="m 461.94014,302.99619 0,1.4732 4.26203,0 -4.26203,-1.4732 z"
       style="fill:#6f6d71;stroke:none" />
    <path
       inkscape:connector-curvature="0"
       id="path604"
       d="m 547.18085,302.99619 c 8.72297,20.67795 18.91066,35.28482 19.8895,58.92835 l 1.42068,0 c 0,-18.76279 -2.65098,-49.47183 -21.31018,-58.92835 z"
       style="fill:#2e1f2d;stroke:none" />
    <path
       inkscape:connector-curvature="0"
       id="path608"
       d="m 194.85257,304.46939 1.42068,1.47321 -1.42068,-1.47321 z"
       style="fill:#7f8694;stroke:none" />
    <path
       inkscape:connector-curvature="0"
       id="path610"
       d="m 261.62446,304.46939 c 1.69061,5.55548 4.50639,6.7311 9.94475,7.36605 l 0,-1.47321 -9.94475,-5.89284 z"
       style="fill:#efeeef;stroke:none" />
    <path
       inkscape:connector-curvature="0"
       id="path612"
       d="m 280.09328,304.46939 c 0.81689,9.32836 11.45635,21.79466 19.8895,11.78568 -9.57111,1.75311 -16.25256,-0.87067 -17.04814,-11.78568 l -2.84136,0 z"
       style="fill:#d7d7d7;stroke:none" />
    <path
       inkscape:connector-curvature="0"
       id="path614"
       d="m 193.43189,305.9426 1.42068,1.47321 -1.42068,-1.47321 z"
       style="fill:#7f8694;stroke:none" />
    <path
       inkscape:connector-curvature="0"
       id="path616"
       d="m 274.41057,305.9426 0,2.94642 2.84136,-2.94642 -2.84136,0 z"
       style="fill:#57575f;stroke:none" />
    <path
       inkscape:connector-curvature="0"
       id="path618"
       d="m 449.15403,307.41581 -15.62746,4.41963 9.94475,11.78567 8.52407,-16.2053 -2.84136,0 z"
       style="fill:#08080a;stroke:none" />
    <path
       inkscape:connector-curvature="0"
       id="path620"
       d="m 453.41607,308.88902 0,1.47321 4.26203,0 -4.26203,-1.47321 m -188.95025,1.47321 1.42068,1.47321 -1.42068,-1.47321 z"
       style="fill:#ab96d1;stroke:none" />
    <path
       inkscape:connector-curvature="0"
       id="path622"
       d="m 280.56637,311.34486 0.47451,0.98116 -0.47451,-0.98116 z"
       style="fill:#57575f;stroke:none" />
    <path
       inkscape:connector-curvature="0"
       id="path624"
       d="m 299.98278,310.36223 -2.84135,5.89284 4.26203,1.4732 2.84136,-5.89283 -4.26204,-1.47321 z"
       style="fill:#87788d;stroke:none" />
    <path
       inkscape:connector-curvature="0"
       id="path626"
       d="m 325.555,333.93357 c 14.73812,-10.63657 25.28808,-19.62314 44.04103,-20.47171 40.34443,-1.82383 62.28255,48.97535 45.00142,82.34648 -12.66819,24.46411 -34.79384,29.46418 -59.2082,29.46418 12.75343,6.36868 24.67576,3.09079 36.93764,-2.88602 9.63504,-4.69659 17.51981,-11.48219 23.41989,-20.68532 16.93022,-26.40875 10.04561,-64.06986 -16.31792,-81.32113 -21.89266,-14.32401 -61.22272,-14.38294 -73.87386,13.55352 z"
       style="fill:#2e1f2d;stroke:none" />
    <path
       inkscape:connector-curvature="0"
       id="path628"
       d="m 319.87228,394.33513 c 8.44878,0.97674 14.73954,13.78924 22.38137,18.5315 20.27735,12.58414 41.14143,6.15801 60.01799,-5.27262 l -9.94475,8.83925 c 7.58784,1.8091 14.73954,-7.43086 18.76858,-13.25888 11.9607,-17.29841 14.05051,-39.87828 4.99511,-58.92835 -16.07782,-33.8234 -62.5539,-41.83471 -87.39588,-13.19995 -14.92991,17.20855 -16.32076,42.42694 -8.82242,63.28905 z"
       style="fill:#434248;stroke:none" />
    <path
       inkscape:connector-curvature="0"
       id="path630"
       d="m 186.3285,350.13887 c 9.01704,-6.66038 11.66945,-24.92228 15.62746,-35.35701 -13.85019,6.8401 -15.59053,21.0934 -15.62746,35.35701 z"
       style="fill:#bababa;stroke:none" />
    <path
       inkscape:connector-curvature="0"
       id="path632"
       d="m 456.25742,314.78186 c -1.16495,3.49887 -3.49344,9.16777 -2.40662,12.93182 1.45903,5.06048 5.68555,5.17539 6.66866,0.32706 l -5.68271,-4.41963 4.26203,-1.47321 0,-7.36604 -2.84136,0 m -167.64007,4.41962 0,1.47321 8.52408,0 -8.52408,-1.47321 m 0,11.78567 1.42068,0 0,5.89284 c 5.27498,-14.19731 -17.60789,-22.80527 -23.09739,-8.77443 -7.27103,18.586 20.61405,23.00563 21.67671,2.88159 z"
       style="fill:#7f8694;stroke:none" />
    <path
       inkscape:connector-curvature="0"
       id="path634"
       d="m 471.88489,320.67469 -1.42068,1.47321 1.42068,4.41963 2.84136,0 1.42067,-4.41963 -4.26203,-1.47321 z"
       style="fill:#6f6d71;stroke:none" />
    <path
       inkscape:connector-curvature="0"
       id="path636"
       d="m 274.41057,322.1479 0,1.47321 7.10339,0 -7.10339,-1.47321 z"
       style="fill:#57575f;stroke:none" />
    <path
       inkscape:connector-curvature="0"
       id="path638"
       d="m 454.83675,323.62111 4.26203,5.89283 1.42068,-7.36604 -5.68271,1.47321 z"
       style="fill:#d7d7d7;stroke:none" />
    <path
       inkscape:connector-curvature="0"
       id="path640"
       d="m 541.49814,322.1479 0,76.60686 -2.84136,-1.47321 -2.84136,26.51776 1.42068,0 c 0.0938,-8.34868 4.79337,-35.48224 11.36543,-39.77664 l -1.42068,-50.0891 c 11.08414,10.16514 14.29203,17.24833 17.04815,32.41059 l 1.42067,0 -8.52407,-36.83022 -4.26203,5.89284 -1.42068,0 -7.10339,-13.25888 -2.84136,0 z"
       style="fill:#ba98c9;stroke:none" />
    <path
       inkscape:connector-curvature="0"
       id="path642"
       d="m 268.72785,336.87999 1.42068,0 4.26204,-13.25888 c -5.4412,3.11142 -5.6131,7.12886 -5.68272,13.25888 z"
       style="fill:#434248;stroke:none" />
    <path
       inkscape:connector-curvature="0"
       id="path644"
       d="m 274.41057,323.62111 -1.42068,5.89283 7.10339,-1.4732 1.42068,4.41962 c 3.5588,-6.29797 -1.47608,-8.39434 -7.10339,-8.83925 z"
       style="fill:#bababa;stroke:none" />
    <path
       inkscape:connector-curvature="0"
       id="path646"
       d="m 471.88489,326.56753 0,2.94641 2.84136,0 0,-2.94641 -2.84136,0 z"
       style="fill:#ab96d1;stroke:none" />
    <path
       inkscape:connector-curvature="0"
       id="path648"
       d="m 272.98989,338.3532 4.26204,1.47321 1.42067,0 1.42068,0 0,-11.78567 c -6.04072,1.69124 -8.1689,3.72279 -7.10339,10.31246 z"
       style="fill:#efeeef;stroke:none" />
    <path
       inkscape:connector-curvature="0"
       id="path650"
       d="m 358.2306,328.82448 c -52.40741,12.92594 -27.85524,92.47774 22.73086,78.0344 48.44372,-13.83196 24.73401,-89.74051 -22.73086,-78.0344 z"
       style="fill:#2e1f2d;stroke:none" />
    <path
       inkscape:connector-curvature="0"
       id="path652"
       d="m 564.70208,330.49657 0.47451,0.98116 -0.47451,-0.98116 z"
       style="fill:#57575f;stroke:none" />
    <path
       inkscape:connector-curvature="0"
       id="path654"
       d="m 178.27751,331.96978 0.47451,0.98116 -0.47451,-0.98116 z"
       style="fill:#87788d;stroke:none" />
    <path
       inkscape:connector-curvature="0"
       id="path656"
       d="m 288.61735,330.98715 c -1.07687,10.01782 -6.55501,12.59888 -15.62746,13.25888 l 0,2.94642 c 9.42762,-0.0884 20.3981,-4.27378 15.62746,-16.2053 z"
       style="fill:#bababa;stroke:none" />
    <path
       inkscape:connector-curvature="0"
       id="path658"
       d="m 361.07196,330.98715 0,1.47321 12.78611,0 -12.78611,-1.47321 z"
       style="fill:#393b43;stroke:none" />
    <path
       inkscape:connector-curvature="0"
       id="path660"
       d="m 352.54789,333.93357 0,1.47321 c 9.2472,1.62348 19.20189,6.71783 25.57221,-2.94642 l -25.57221,1.47321 z"
       style="fill:#6f6d71;stroke:none" />
    <path
       inkscape:connector-curvature="0"
       id="path662"
       d="m 375.27875,335.40678 0,2.94642 c 11.11254,6.13739 23.20536,16.27012 22.51633,30.93738 -0.2884,6.13002 -3.64972,11.4542 -4.04751,17.67851 21.60284,-11.9492 5.05477,-57.50376 -18.46882,-51.56231 z"
       style="fill:#87788d;stroke:none" />
    <path
       inkscape:connector-curvature="0"
       id="path664"
       d="m 176.85683,336.38941 0.47451,0.98116 -0.47451,-0.98116 z"
       style="fill:#6f6d71;stroke:none" />
    <path
       inkscape:connector-curvature="0"
       id="path666"
       d="m 336.92043,375.18342 1.42067,0 c 0.0469,-16.74891 7.59353,-29.92677 22.73086,-36.83022 -10.8824,-7.66363 -24.55217,6.52926 -26.59226,17.6785 -1.17632,6.42319 1.54996,12.8729 2.44073,19.15172 z"
       style="fill:#7f8694;stroke:none" />
    <path
       inkscape:connector-curvature="0"
       id="path668"
       d="m 567.07035,335.40678 8.52407,35.35701 1.42068,0 -5.68271,-35.35701 -4.26204,0 z"
       style="fill:#ab96d1;stroke:none" />
    <path
       inkscape:connector-curvature="0"
       id="path670"
       d="m 180.64578,336.87999 -4.26203,13.25888 c 4.21799,-3.76552 7.44861,-7.85515 4.26203,-13.25888 z"
       style="fill:#bababa;stroke:none" />
    <path
       inkscape:connector-curvature="0"
       id="path672"
       d="m 358.2306,339.3152 c -34.8464,11.32898 -16.15169,69.24671 18.46883,57.63488 36.152,-12.12451 18.18326,-69.55166 -18.46883,-57.63488 z"
       style="fill:#08080a;stroke:none" />
    <path
       inkscape:connector-curvature="0"
       id="path674"
       d="m 174.96307,339.82641 -1.42068,19.15171 1.42068,0 0,-19.15171 z"
       style="fill:#434248;stroke:none" />
    <path
       inkscape:connector-curvature="0"
       id="path676"
       d="m 460.51946,342.77282 0,7.36605 8.52407,-4.41963 -2.84136,4.41963 5.68272,-7.36605 -11.36543,0 z"
       style="fill:#574662;stroke:none" />
    <path
       inkscape:connector-curvature="0"
       id="path678"
       d="m 174.01548,345.22866 0.4745,0.98116 -0.4745,-0.98116 z"
       style="fill:#ab96d1;stroke:none" />
    <path
       inkscape:connector-curvature="0"
       id="path680"
       d="m 199.1146,344.24603 -5.68271,13.25888 9.94475,0 0,-13.25888 -4.26204,0 m 18.46883,0 -7.1034,17.67851 1.42068,0 8.52407,-17.67851 -2.84135,0 z"
       style="fill:#57575f;stroke:none" />
    <path
       inkscape:connector-curvature="0"
       id="path682"
       d="m 467.62285,363.39775 c -1.91507,-4.70101 -4.69676,-9.03372 1.42068,-10.31246 l 0,-7.36605 c -8.02115,4.15887 -10.23741,13.01138 -1.42068,17.67851 z"
       style="fill:#797898;stroke:none" />
    <path
       inkscape:connector-curvature="0"
       id="path684"
       d="m 555.70492,345.71924 c 0,48.76174 -22.60583,89.10409 -40.91412,132.58879 -5.26929,12.51491 -19.66219,19.99292 -21.59573,33.88381 l -59.6685,32.41059 1.42068,5.89283 -2.84136,5.89284 c 51.62462,-9.51398 92.13242,-58.52911 113.95121,-104.59782 5.69692,-12.02728 12.48066,-23.53746 15.16006,-36.83023 4.48508,-22.23661 -2.67088,-46.66683 -2.67088,-69.24081 l -2.84136,0 z"
       style="fill:#efeeef;stroke:none" />
    <path
       inkscape:connector-curvature="0"
       id="path686"
       d="m 568.49103,345.71924 0,20.62492 -1.42068,0 0,-2.94641 -1.42068,0 0,32.41059 1.42068,0 c 7.83789,-15.39503 12.95091,-34.91357 1.42068,-50.0891 z"
       style="fill:#87788d;stroke:none" />
    <path
       inkscape:connector-curvature="0"
       id="path688"
       d="m 172.12171,350.13887 0,4.41962 1.42068,0 -1.42068,-4.41962 z"
       style="fill:#bababa;stroke:none" />
    <path
       inkscape:connector-curvature="0"
       id="path690"
       d="m 174.96307,350.13887 0,5.89283 1.42068,0 -1.42068,-5.89283 z"
       style="fill:#ab96d1;stroke:none" />
    <path
       inkscape:connector-curvature="0"
       id="path692"
       d="m 265.8865,354.55849 9.94475,0 0,-4.41962 -9.94475,4.41962 z"
       style="fill:#6f6d71;stroke:none" />
    <path
       inkscape:connector-curvature="0"
       id="path694"
       d="m 255.94175,351.61208 -1.42068,29.46417 1.42068,0 0,-29.46417 z"
       style="fill:#434248;stroke:none" />
    <path
       inkscape:connector-curvature="0"
       id="path696"
       d="m 274.41057,351.61208 7.10339,16.20529 -5.68271,2.94642 2.84135,-1.47321 0,1.47321 -2.84135,8.83925 c 13.15264,-4.12793 11.04435,-24.34919 -1.42068,-27.99096 z"
       style="fill:#7f8694;stroke:none" />
    <path
       inkscape:connector-curvature="0"
       id="path698"
       d="m 280.09328,354.55849 1.42068,1.47321 2.84136,-4.41962 -4.26204,2.94641 z"
       style="fill:#434248;stroke:none" />
    <path
       inkscape:connector-curvature="0"
       id="path700"
       d="m 464.7815,351.61208 1.42067,10.31246 1.42068,0 2.84136,-8.83925 -5.68271,-1.47321 z"
       style="fill:#bababa;stroke:none" />
    <path
       inkscape:connector-curvature="0"
       id="path702"
       d="m 478.98828,351.61208 -1.42068,33.8838 4.26204,1.47321 0,-35.35701 -2.84136,0 z"
       style="fill:#57575f;stroke:none" />
    <path
       inkscape:connector-curvature="0"
       id="path704"
       d="m 264.46582,353.08529 -4.26204,16.20529 1.42068,0 2.84136,-1.47321 0,-14.73208 z"
       style="fill:#393b43;stroke:none" />
    <path
       inkscape:connector-curvature="0"
       id="path706"
       d="m 172.12171,354.55849 0,11.78567 1.42068,0 -1.42068,-11.78567 z"
       style="fill:#57575f;stroke:none" />
    <path
       inkscape:connector-curvature="0"
       id="path708"
       d="m 268.72785,354.55849 7.1034,13.25888 5.68271,0 c -1.16922,-8.69635 -4.08871,-12.65191 -12.78611,-13.25888 z"
       style="fill:#bababa;stroke:none" />
    <path
       inkscape:connector-curvature="0"
       id="path710"
       d="m 183.48714,356.0317 c 0,13.71705 -0.41768,31.05966 9.94475,41.24985 l -1.42068,-32.41059 -8.52407,-8.83926 m 83.82004,0 c -5.94128,11.48514 -3.71366,25.19187 11.36542,20.62493 l 0,-7.36605 -11.36542,0 0,-13.25888 z"
       style="fill:#ab96d1;stroke:none" />
    <path
       inkscape:connector-curvature="0"
       id="path712"
       d="m 362.57646,357.55205 c -12.6824,7.02574 -2.61121,29.15775 11.14806,21.58251 14.37727,-7.91555 2.3285,-29.04873 -11.14806,-21.58251 z"
       style="fill:#434248;stroke:none" />
    <path
       inkscape:connector-curvature="0"
       id="path714"
       d="m 467.62285,357.50491 0,5.89284 -5.68271,-2.94642 -1.42068,7.36604 c 7.87056,2.22308 15.64025,-4.05869 7.10339,-10.31246 z"
       style="fill:#57575f;stroke:none" />
    <path
       inkscape:connector-curvature="0"
       id="path716"
       d="m 182.06646,358.97812 c 0,17.64757 -5.42273,33.51992 -2.68366,51.56231 1.72186,11.33929 8.78263,19.52591 4.10434,29.46417 l 4.26204,-1.4732 1.42067,8.83925 c 15.2311,13.52995 22.5206,39.07244 36.01136,55.2247 36.12502,43.25047 89.14048,64.10521 142.99414,64.10521 18.6322,0 58.67545,1.87098 66.7719,-19.15171 -12.83868,-3.3545 -31.0603,4.25757 -44.04104,6.68395 -19.67071,3.67712 -40.07166,2.36155 -59.6685,-1.26549 -44.8977,-8.31037 -94.90843,-41.22775 -115.13889,-84.94964 -6.52802,-14.11187 -4.88856,-29.50837 -8.72723,-44.21836 -3.03315,-11.62509 -12.8131,-21.42782 -17.70876,-32.4106 -4.71949,-10.58942 -3.51476,-22.32353 -7.59637,-32.41059 z"
       style="fill:#d7d7d7;stroke:none" />
    <path
       inkscape:connector-curvature="0"
       id="path718"
       d="m 224.68682,363.39775 -4.26204,-1.47321 -4.26203,7.36604 1.42068,13.25888 c -11.07561,2.46173 0.76148,23.79085 -4.26204,29.46418 l 2.84136,11.78567 c 16.5509,9.92353 21.61278,60.9599 48.30307,54.50872 l 2.88113,13.84375 32.63583,6.78118 c -6.60189,-8.28828 -17.93606,-12.50755 -23.167,-22.09961 -2.95786,-5.42141 -0.25715,-11.67665 -3.54175,-17.25569 -4.15833,-7.06257 -13.3828,-14.82785 -3.1255,-21.04626 l -1.42068,-2.94642 c 5.02352,-1.58075 6.44988,-3.42521 5.68272,-8.83925 l -1.42068,0 1.42068,4.41962 -5.68272,1.47321 0,-23.57134 -7.10339,-27.99097 -1.42068,0 1.42068,51.56231 -1.42068,0 -2.84135,-36.83022 -11.36543,-1.47321 4.26203,-4.41962 -9.94475,-26.51776 -7.10339,1.47321 0,-5.89284 c -4.53765,0.0192 -7.4884,-0.5937 -8.52407,4.41963 z"
       style="fill:#08080a;stroke:none" />
    <path
       inkscape:connector-curvature="0"
       id="path720"
       d="m 267.30718,369.29058 7.10339,1.47321 c 3.38263,-12.24826 -9.38643,-14.23267 -7.10339,-1.47321 z"
       style="fill:#efeeef;stroke:none" />
    <path
       inkscape:connector-curvature="0"
       id="path722"
       d="m 332.65839,358.97812 c 0,15.342 0.78563,27.09673 12.80742,37.8541 15.81073,14.1487 46.13937,7.7314 53.96447,-12.80955 l -5.68271,0 c -4.60868,3.89958 -8.82242,8.35899 -14.20821,11.15661 -26.66898,13.85111 -37.38231,-18.0748 -46.88097,-36.20116 z"
       style="fill:#57575f;stroke:none" />
    <path
       inkscape:connector-curvature="0"
       id="path724"
       d="m 362.49264,364.87096 5.68271,1.4732 c 3.82731,-1.62494 4.58169,0.61581 5.68272,4.41963 l -5.68272,-1.47321 -1.42067,7.36605 7.10339,0 c 3.2221,-9.3593 -3.23347,-24.33447 -11.36543,-11.78567 z"
       style="fill:#2e1f2d;stroke:none" />
    <path
       inkscape:connector-curvature="0"
       id="path726"
       d="m 255.94175,360.45133 2.84135,51.56231 1.42068,0 c 0,-14.22678 2.83994,-39.26691 -4.26203,-51.56231 z"
       style="fill:#7f8694;stroke:none" />
    <path
       inkscape:connector-curvature="0"
       id="path728"
       d="m 474.72625,360.45133 -2.84136,5.89283 2.84136,-5.89283 z"
       style="fill:#797898;stroke:none" />
    <path
       inkscape:connector-curvature="0"
       id="path730"
       d="m 338.3411,361.92454 0,13.25888 1.42068,0 -1.42068,-13.25888 m 58.24782,0 0,13.25888 1.42068,0 -1.42068,-13.25888 z"
       style="fill:#434248;stroke:none" />
    <path
       inkscape:connector-curvature="0"
       id="path732"
       d="m 173.54239,363.39775 -1.42068,7.36604 1.42068,-7.36604 z"
       style="fill:#7f8694;stroke:none" />
    <path
       inkscape:connector-curvature="0"
       id="path734"
       d="m 368.17535,363.39775 c 0.19037,4.7894 1.27577,5.96944 5.68272,7.36604 l -5.68272,-7.36604 z"
       style="fill:#861938;stroke:none" />
    <path
       inkscape:connector-curvature="0"
       id="path736"
       d="m 369.59603,364.87096 0,4.41962 2.84136,0 0,-4.41962 -2.84136,0 z"
       style="fill:#ff235d;stroke:none" />
    <path
       inkscape:connector-curvature="0"
       id="path738"
       d="m 261.62446,366.34416 c 0.17759,5.71311 0.71318,8.94533 5.68272,11.78567 l -5.68272,-11.78567 z"
       style="fill:#57575f;stroke:none" />
    <path
       inkscape:connector-curvature="0"
       id="path740"
       d="m 362.49264,366.34416 0,5.89284 5.68271,-1.47321 0,-2.94642 -5.68271,-1.47321 z"
       style="fill:#87788d;stroke:none" />
    <path
       inkscape:connector-curvature="0"
       id="path742"
       d="m 172.12171,370.76379 1.42068,7.36604 1.42068,0 0,-7.36604 -2.84136,0 z"
       style="fill:#bababa;stroke:none" />
    <path
       inkscape:connector-curvature="0"
       id="path744"
       d="m 454.83675,397.28155 c 8.84798,3.8878 16.73559,3.9482 21.31017,-5.89284 l -14.20678,0 7.10339,-8.83925 -1.42068,8.83925 c 4.36149,-5.49948 5.92423,-24.72339 -4.59163,-15.44659 -4.26772,3.76405 -5.54491,15.69557 -8.19447,21.33943 z"
       style="fill:#6f6d71;stroke:none" />
    <path
       inkscape:connector-curvature="0"
       id="path746"
       d="m 199.1146,376.65663 4.26204,5.89283 -1.42068,-5.89283 -2.84136,0 z"
       style="fill:#bababa;stroke:none" />
    <path
       inkscape:connector-curvature="0"
       id="path748"
       d="m 473.30557,376.65663 -5.68272,17.6785 1.42068,1.47321 5.68272,-4.41963 1.42067,0 5.68272,1.47321 0,-5.89283 -8.52407,-10.31246 z"
       style="fill:#393b43;stroke:none" />
    <path
       inkscape:connector-curvature="0"
       id="path750"
       d="m 481.82964,376.65663 -2.84136,11.78567 0,1.47321 0,2.94641 0,1.47321 c 6.27656,-1.39513 5.50655,-12.88026 2.84136,-17.6785 z"
       style="fill:#6f6d71;stroke:none" />
    <path
       inkscape:connector-curvature="0"
       id="path752"
       d="m 268.72785,382.54946 0,1.47321 8.52408,1.47321 0,-2.94642 -8.52408,0 z"
       style="fill:#57575f;stroke:none" />
    <path
       inkscape:connector-curvature="0"
       id="path754"
       d="m 267.30718,384.02267 1.42067,10.31246 14.20679,7.36605 4.26204,-8.83926 c -4.75928,-12.28656 -9.49298,-7.13622 -19.8895,-8.83925 z"
       style="fill:#ab96d1;stroke:none" />
    <path
       inkscape:connector-curvature="0"
       id="path756"
       d="m 461.94014,391.38871 5.68271,1.47321 1.42068,-10.31246 -7.10339,8.83925 z"
       style="fill:#bababa;stroke:none" />
    <path
       inkscape:connector-curvature="0"
       id="path758"
       d="m 534.39475,382.54946 c -1.77585,7.73729 -4.69108,23.25313 4.26203,26.51776 0,-8.79506 2.19495,-19.96051 -4.26203,-26.51776 z"
       style="fill:#d7d7d7;stroke:none" />
    <path
       inkscape:connector-curvature="0"
       id="path760"
       d="m 255.94175,384.02267 0,11.78567 1.42068,0 -1.42068,-11.78567 m 9.94475,0 -1.42068,19.15171 c 4.22794,-5.9002 4.46661,-12.56794 1.42068,-19.15171 z"
       style="fill:#57575f;stroke:none" />
    <path
       inkscape:connector-curvature="0"
       id="path762"
       d="m 278.6726,384.02267 0,4.41963 4.26204,0 0,-4.41963 -4.26204,0 z"
       style="fill:#d7d7d7;stroke:none" />
    <path
       inkscape:connector-curvature="0"
       id="path764"
       d="m 193.43189,386.96909 5.68271,23.57134 1.42068,0 -7.10339,-23.57134 z"
       style="fill:#7f8694;stroke:none" />
    <path
       inkscape:connector-curvature="0"
       id="path766"
       d="m 271.56921,386.96909 0,1.47321 5.68272,0 -5.68272,-1.47321 z"
       style="fill:#57575f;stroke:none" />
    <path
       inkscape:connector-curvature="0"
       id="path768"
       d="m 200.53528,391.38871 c 0,37.55946 27.15769,91.19605 65.35122,101.65141 -0.69187,-9.23112 -18.40205,-20.71921 -26.9929,-22.09813 -2.56574,-7.78149 -9.98168,-13.84227 -14.17979,-20.88126 -9.10655,-15.26539 -16.71286,-33.11184 -17.07513,-51.30597 l -1.42068,0 0,13.25888 -1.42068,0 -4.26204,-20.62493 z"
       style="fill:#393b43;stroke:none" />
    <path
       inkscape:connector-curvature="0"
       id="path770"
       d="m 483.25032,391.38871 0,29.46418 1.42068,0 -1.42068,-29.46418 z"
       style="fill:#574662;stroke:none" />
    <path
       inkscape:connector-curvature="0"
       id="path772"
       d="m 272.98989,404.64759 c 12.95801,-7.3955 -9.16196,-17.58716 0,0 z"
       style="fill:#efeeef;stroke:none" />
    <path
       inkscape:connector-curvature="0"
       id="path774"
       d="m 284.35532,392.86192 -1.42068,13.25888 1.42068,0 2.84136,-13.25888 -2.84136,0 z"
       style="fill:#bababa;stroke:none" />
    <path
       inkscape:connector-curvature="0"
       id="path776"
       d="m 287.19668,392.86192 0,7.36605 1.42067,0 -1.42067,-7.36605 z"
       style="fill:#7f8694;stroke:none" />
    <path
       inkscape:connector-curvature="0"
       id="path778"
       d="m 530.13271,394.33513 c -3.52897,10.24912 -0.85383,20.61314 -3.54885,30.93739 -4.05604,15.52909 -21.18232,36.83611 -34.80947,44.19626 -1.3738,14.67021 -30.69802,21.16559 -42.62036,23.57134 l 7.10339,-13.25888 -8.52407,1.47321 1.42068,-2.94642 -1.42068,0 -36.93764,19.15172 0,1.47321 11.36543,0 0,1.47321 -9.94475,2.94641 1.42068,4.41963 -78.13732,4.41963 0,-2.94642 11.36543,-1.47321 0,-1.47321 -24.15154,0 0,-1.47321 12.78611,-1.47321 0,-1.47321 -45.46172,0 0,1.47321 4.26204,1.47321 c 0.34522,7.91555 6.75106,8.38698 12.78611,11.09326 14.14143,6.34069 26.8565,11.0034 42.62035,11.00487 l 0,4.41963 c 31.90134,0 64.09107,5.33596 92.47197,-13.08209 8.0723,-5.23726 18.98169,-7.08614 21.18232,-17.85529 l 5.68271,0 0,-4.41963 c 11.12107,-0.87214 19.83836,-13.95276 27.39921,-21.67238 19.31554,-19.72184 46.64798,-47.95589 33.68997,-79.97903 z"
       style="fill:#393b43;stroke:none" />
    <path
       inkscape:connector-curvature="0"
       id="path780"
       d="m 267.30718,395.80834 c -1.38659,9.35635 2.65666,12.4383 11.36542,13.25888 l -11.36542,-13.25888 z"
       style="fill:#ab96d1;stroke:none" />
    <path
       inkscape:connector-curvature="0"
       id="path782"
       d="m 288.61735,395.80834 -1.42067,5.89284 1.42067,-5.89284 z"
       style="fill:#434248;stroke:none" />
    <path
       inkscape:connector-curvature="0"
       id="path784"
       d="m 282.93464,397.28155 -7.10339,8.83925 8.52407,1.47321 -1.42068,-10.31246 z"
       style="fill:#7f8694;stroke:none" />
    <path
       inkscape:connector-curvature="0"
       id="path788"
       d="m 286.24908,402.68381 0.47451,0.98115 -0.47451,-0.98115 z"
       style="fill:#6f6d71;stroke:none" />
    <path
       inkscape:connector-curvature="0"
       id="path790"
       d="m 365.334,404.64759 0,1.47321 18.46882,-2.94642 -18.46882,1.47321 z"
       style="fill:#393b43;stroke:none" />
    <path
       inkscape:connector-curvature="0"
       id="path804"
       d="m 450.57471,404.64759 -2.84136,10.31246 2.84136,-1.4732 -4.26204,8.83925 -1.42067,0 0,-10.31246 -2.84136,0 c 0.1648,15.31842 16.20426,25.93584 24.15153,8.83925 l -7.10339,4.41963 0,-5.89284 -1.42068,0 -1.42068,2.94642 -1.42067,0 -2.84136,-2.94642 c 3.42383,-5.75435 6.27087,-7.46769 12.78611,-7.36604 -2.19779,-7.51042 -7.41168,-7.341 -14.20679,-7.36605 z"
       style="fill:#797898;stroke:none" />
    <path
       inkscape:connector-curvature="0"
       id="path806"
       d="m 271.09613,408.08459 0.94617,0.49205 -0.94617,-0.49205 z"
       style="fill:#6f6d71;stroke:none" />
    <path
       inkscape:connector-curvature="0"
       id="path808"
       d="m 464.7815,407.59401 -7.1034,2.94642 1.42068,14.73209 7.10339,-4.41963 c 2.97775,4.24284 5.71397,4.50802 8.52408,0 l -9.94475,-13.25888 z"
       style="fill:#574662;stroke:none" />
    <path
       inkscape:connector-curvature="0"
       id="path810"
       d="m 260.20378,409.06722 0,23.57134 1.42068,0 -1.42068,-23.57134 z"
       style="fill:#434248;stroke:none" />
    <path
       inkscape:connector-curvature="0"
       id="path812"
       d="m 274.41057,409.06722 0,1.47321 7.10339,0 -7.10339,-1.47321 z"
       style="fill:#57575f;stroke:none" />
    <path
       inkscape:connector-curvature="0"
       id="path814"
       d="m 287.19668,409.06722 0,1.47321 4.26203,0 -4.26203,-1.47321 z"
       style="fill:#797898;stroke:none" />
    <path
       inkscape:connector-curvature="0"
       id="path816"
       d="m 534.39475,409.06722 c -0.20174,25.18892 -10.85967,37.97343 -23.98816,57.87059 -8.55817,12.97013 -14.95264,26.80209 -23.97395,39.30374 -5.47388,7.58407 -13.93402,13.32812 -17.38911,22.15558 10.48461,-6.02984 15.38453,-15.83405 23.17269,-24.62321 21.9921,-24.82062 46.44056,-57.04706 46.44056,-91.76028 l -1.42068,0 0,11.78567 -1.42068,0 -1.42067,-14.73209 z"
       style="fill:#bababa;stroke:none" />
    <path
       inkscape:connector-curvature="0"
       id="path818"
       d="m 281.51396,412.01364 -1.42068,5.89283 11.36543,10.31246 c 11.48335,-6.98153 0.77285,-19.46108 -9.94475,-16.20529 z"
       style="fill:#d7d7d7;stroke:none" />
    <path
       inkscape:connector-curvature="0"
       id="path820"
       d="m 454.83675,412.01364 -1.42068,2.94641 0,1.47321 5.68271,1.47321 -1.42068,-5.89283 -2.84135,0 z"
       style="fill:#efeeef;stroke:none" />
    <path
       inkscape:connector-curvature="0"
       id="path822"
       d="m 469.04353,416.43326 4.26204,-4.41962 -4.26204,4.41962 z"
       style="fill:#7f8694;stroke:none" />
    <path
       inkscape:connector-curvature="0"
       id="path824"
       d="m 278.6726,413.48685 c -4.36006,13.13807 1.51445,20.57778 14.20679,20.62492 l -1.42068,-5.89284 -8.52407,-4.41962 -1.42068,0 1.42068,7.36604 -1.42068,0 0,-17.6785 -2.84136,0 z"
       style="fill:#bababa;stroke:none" />
    <path
       inkscape:connector-curvature="0"
       id="path826"
       d="m 281.51396,431.16535 1.42068,0 -2.84136,-13.25888 4.26204,-4.41962 c -7.10624,4.06311 -6.00237,10.86491 -2.84136,17.6785 z"
       style="fill:#6f6d71;stroke:none" />
    <path
       inkscape:connector-curvature="0"
       id="path840"
       d="m 451.99539,416.43326 5.68271,5.89284 1.42068,-4.41963 -7.10339,-1.47321 z"
       style="fill:#bababa;stroke:none" />
    <path
       inkscape:connector-curvature="0"
       id="path846"
       d="m 469.04353,417.90647 0,1.47321 4.26204,0 -4.26204,-1.47321 z"
       style="fill:#ab96d1;stroke:none" />
    <path
       inkscape:connector-curvature="0"
       id="path848"
       d="m 268.72785,419.37968 0,4.41963 4.26204,0 0,-4.41963 -4.26204,0 z"
       style="fill:#797898;stroke:none" />
    <path
       inkscape:connector-curvature="0"
       id="path850"
       d="m 275.83125,419.37968 c 0.11223,12.92741 5.71539,19.31672 18.46882,16.2053 l 0,-1.47321 c -12.24625,-0.0442 -13.60016,-4.33565 -18.46882,-14.73209 m 7.10339,7.36605 7.10339,2.94641 c 2.22905,-8.6772 -4.39274,-12.19817 -7.10339,-2.94641 z"
       style="fill:#efeeef;stroke:none" />
    <path
       inkscape:connector-curvature="0"
       id="path852"
       d="m 297.14143,420.85289 -2.84136,14.73209 c 5.00931,-4.32976 6.67861,-8.8643 2.84136,-14.73209 z"
       style="fill:#ab96d1;stroke:none" />
    <path
       inkscape:connector-curvature="0"
       id="path854"
       d="m 207.63868,422.3261 0,7.36604 1.42067,0 -1.42067,-7.36604 z"
       style="fill:#bababa;stroke:none" />
    <path
       inkscape:connector-curvature="0"
       id="path856"
       d="m 274.41057,422.3261 0,5.89283 1.42068,0 -1.42068,-5.89283 z"
       style="fill:#574662;stroke:none" />
    <path
       inkscape:connector-curvature="0"
       id="path858"
       d="m 469.04353,422.3261 0,1.47321 4.26204,0 -4.26204,-1.47321 z"
       style="fill:#bababa;stroke:none" />
    <path
       inkscape:connector-curvature="0"
       id="path862"
       d="m 299.98278,423.79931 0,4.41962 1.42068,0 -1.42068,-4.41962 z"
       style="fill:#6f6d71;stroke:none" />
    <path
       inkscape:connector-curvature="0"
       id="path864"
       d="m 268.72785,425.27252 0,7.36604 5.68272,-1.47321 -1.42068,-5.89283 -4.26204,0 z"
       style="fill:#7f8694;stroke:none" />
    <path
       inkscape:connector-curvature="0"
       id="path868"
       d="m 291.45871,428.21893 1.42068,5.89284 4.26204,-7.36604 -5.68272,1.4732 z"
       style="fill:#7f8694;stroke:none" />
    <path
       inkscape:connector-curvature="0"
       id="path872"
       d="m 432.10589,428.21893 -1.42068,7.36605 1.42068,0 0,-4.41963 4.26203,2.94642 2.84136,-2.94642 1.42068,0 2.84136,2.94642 1.42068,-2.94642 -12.78611,-2.94642 z"
       style="fill:#6f6d71;stroke:none" />
    <path
       inkscape:connector-curvature="0"
       id="path884"
       d="m 429.26453,431.16535 -4.26203,2.94642 c 1.52296,6.61029 0.89218,12.65339 7.10339,16.2053 l -2.84136,-5.89284 c 3.82163,-0.63643 2.61547,-3.92168 0,-5.89283 l 0,-7.36605 z"
       style="fill:#434248;stroke:none" />
    <path
       inkscape:connector-curvature="0"
       id="path886"
       d="m 432.10589,431.16535 -2.84136,7.36605 7.10339,0 -1.42067,-7.36605 -2.84136,0 m 5.68271,0 1.42068,7.36605 4.26204,2.94641 c 4.06314,-4.29882 3.66677,-7.36751 -1.42068,-10.31246 l 1.42068,2.94642 -5.68272,-2.94642 z"
       style="fill:#7f8694;stroke:none" />
    <path
       inkscape:connector-curvature="0"
       id="path890"
       d="m 209.05935,432.63856 2.84136,27.99097 c 11.7547,1.92548 10.09961,20.3347 21.31018,19.15171 2.51176,18.16909 25.87482,30.65453 37.8966,41.99087 50.16558,47.30768 137.90243,43.33886 192.72783,3.32209 15.02652,-10.96657 21.64688,-25.23312 32.29487,-39.58365 4.70955,-6.34806 10.48745,-10.21228 14.11302,-17.51498 -6.53796,3.01713 -14.78216,8.26323 -18.5569,14.79102 -4.97522,8.60501 -3.44515,16.72092 -14.11871,20.56599 -6.37742,22.49296 -46.55563,33.66872 -65.35121,39.33173 -40.23788,12.12451 -86.73243,3.33977 -122.41987,-16.799 -5.00221,-2.82414 -10.58406,-3.20865 -15.08335,-7.23051 -6.78516,-6.06667 -4.41973,-15.55119 -9.66345,-21.4838 -7.93875,-8.98216 -21.40253,-12.67402 -30.14254,-21.9788 -12.35848,-13.1587 -15.80789,-28.49481 -25.84783,-42.55364 z"
       style="fill:#7f8694;stroke:none" />
    <path
       inkscape:connector-curvature="0"
       id="path892"
       d="m 304.24482,432.63856 0,1.47321 9.94475,0 -9.94475,-1.47321 z"
       style="fill:#57575f;stroke:none" />
    <path
       inkscape:connector-curvature="0"
       id="path894"
       d="m 301.40346,438.5314 12.78611,-1.47321 1.42068,7.36604 4.26203,-2.94642 c -3.70229,-7.03015 -13.47229,-10.12389 -18.46882,-2.94641 z"
       style="fill:#ab96d1;stroke:none" />
    <path
       inkscape:connector-curvature="0"
       id="path896"
       d="m 312.2958,434.60235 0.94618,0.49205 -0.94618,-0.49205 z"
       style="fill:#d7d7d7;stroke:none" />
    <path
       inkscape:connector-curvature="0"
       id="path898"
       d="m 434.94725,434.11177 1.42067,4.41963 1.42068,0 0,-4.41963 -2.84135,0 z"
       style="fill:#bababa;stroke:none" />
    <path
       inkscape:connector-curvature="0"
       id="path900"
       d="m 292.4063,436.07556 0.94618,0.49205 -0.94618,-0.49205 z"
       style="fill:#797898;stroke:none" />
    <path
       inkscape:connector-curvature="0"
       id="path902"
       d="m 314.18957,459.15632 0,-1.47321 c -14.4483,-0.17678 -17.97017,-9.64804 -11.36543,-22.09813 -14.98674,8.15568 -3.96938,28.22668 11.36543,23.57134 z"
       style="fill:#d7d7d7;stroke:none" />
    <path
       inkscape:connector-curvature="0"
       id="path904"
       d="m 423.58182,435.58498 c 0.1236,14.18405 18.44609,29.47891 24.15153,10.31246 l -9.94475,5.89284 1.42068,-4.41963 -9.94475,-2.94642 2.84136,5.89284 -5.68272,-14.73209 -2.84135,0 z"
       style="fill:#7f8694;stroke:none" />
    <path
       inkscape:connector-curvature="0"
       id="path906"
       d="m 447.73335,435.58498 -7.10339,8.83925 -1.42068,0 -1.42068,7.36605 8.52407,-10.31247 2.84136,1.47321 7.10339,-2.94642 -8.52407,-4.41962 z"
       style="fill:#6f6d71;stroke:none" />
    <path
       inkscape:connector-curvature="0"
       id="path908"
       d="m 284.35532,437.05819 0,1.47321 7.10339,0 -7.10339,-1.47321 z"
       style="fill:#57575f;stroke:none" />
    <path
       inkscape:connector-curvature="0"
       id="path910"
       d="m 299.98278,441.47781 0,2.94642 5.68272,1.47321 c 5.88587,-3.58874 5.60457,2.97883 4.26203,7.36604 l -4.26203,-1.4732 -2.84136,5.89283 21.31018,-5.89283 -2.84136,-5.89284 5.68272,-2.94642 -11.36543,1.47321 -1.42068,-7.36604 -14.20679,4.41962 z"
       style="fill:#bababa;stroke:none" />
    <path
       inkscape:connector-curvature="0"
       id="path912"
       d="m 439.20928,437.05819 c -13.73938,6.05047 3.49629,14.87646 0,0 z"
       style="fill:#efeeef;stroke:none" />
    <path
       inkscape:connector-curvature="0"
       id="path914"
       d="m 440.62996,437.05819 0,10.31246 1.42068,0 -1.42068,-10.31246 z"
       style="fill:#57575f;stroke:none" />
    <path
       inkscape:connector-curvature="0"
       id="path916"
       d="m 304.24482,456.2099 -4.26204,-14.73209 4.26204,-1.47321 c -9.12928,-2.12584 -5.39148,13.12335 0,16.2053 m 15.62746,-17.6785 1.42068,5.89283 4.26204,-1.47321 0,-1.47321 -5.68272,-2.94641 z"
       style="fill:#6f6d71;stroke:none" />
    <path
       inkscape:connector-curvature="0"
       id="path918"
       d="m 452.94298,439.02197 0.94617,0.49206 -0.94617,-0.49206 m -12.31302,0.98263 0,4.41963 1.42068,0 -1.42068,-4.41963 z"
       style="fill:#bababa;stroke:none" />
    <path
       inkscape:connector-curvature="0"
       id="path920"
       d="m 449.15403,442.95102 -2.84136,-1.47321 -1.42067,5.89284 9.94475,-1.47321 0,-1.47321 -4.26204,0 0,-1.47321 4.26204,-2.94642 -5.68272,2.94642 z"
       style="fill:#57575f;stroke:none" />
    <path
       inkscape:connector-curvature="0"
       id="path924"
       d="m 304.24482,453.26348 5.68271,0 c 5.41705,-11.39821 -8.34506,-11.52344 -5.68271,0 z"
       style="fill:#efeeef;stroke:none" />
    <path
       inkscape:connector-curvature="0"
       id="path926"
       d="m 326.97568,442.95102 11.36542,5.89284 0,-1.47321 -11.36542,-4.41963 z"
       style="fill:#57575f;stroke:none" />
    <path
       inkscape:connector-curvature="0"
       id="path928"
       d="m 450.57471,442.95102 0,1.47321 4.26204,0 -4.26204,-1.47321 z"
       style="fill:#bababa;stroke:none" />
    <path
       inkscape:connector-curvature="0"
       id="path932"
       d="m 214.74207,444.42423 c 2.49613,9.38581 6.50244,19.70417 15.62746,23.57134 l -15.62746,-23.57134 z"
       style="fill:#6f6d71;stroke:none" />
    <path
       inkscape:connector-curvature="0"
       id="path934"
       d="m 410.79571,444.42423 -2.84136,2.94642 0,1.47321 11.36543,0 -8.52407,-4.41963 z"
       style="fill:#57575f;stroke:none" />
    <path
       inkscape:connector-curvature="0"
       id="path938"
       d="m 321.76605,446.88007 0.4745,0.98116 -0.4745,-0.98116 z"
       style="fill:#434248;stroke:none" />
    <path
       inkscape:connector-curvature="0"
       id="path940"
       d="m 322.71364,445.89744 4.26204,2.94642 -4.26204,-2.94642 z"
       style="fill:#7f8694;stroke:none" />
    <path
       inkscape:connector-curvature="0"
       id="path942"
       d="m 325.555,445.89744 5.68271,2.94642 -5.68271,-2.94642 z"
       style="fill:#2e1f2d;stroke:none" />
    <path
       inkscape:connector-curvature="0"
       id="path944"
       d="m 265.8865,447.37065 c 4.25493,13.73178 18.69755,26.89932 31.25493,32.41059 L 265.8865,447.37065 Z"
       style="fill:#ab96d1;stroke:none" />
    <path
       inkscape:connector-curvature="0"
       id="path946"
       d="m 317.03093,447.37065 -4.26204,8.83925 c 3.75059,-2.26285 5.42415,-4.32976 4.26204,-8.83925 z"
       style="fill:#797898;stroke:none" />
    <path
       inkscape:connector-curvature="0"
       id="path948"
       d="m 322.71364,448.84386 0,1.47321 4.26204,0 -4.26204,-1.47321 z"
       style="fill:#efeeef;stroke:none" />
    <path
       inkscape:connector-curvature="0"
       id="path950"
       d="m 329.81703,448.84386 -1.42068,2.94642 0,1.4732 9.94475,2.94642 8.52408,1.47321 c -3.97364,-7.12296 -9.412,-8.65363 -17.04815,-8.83925 m 76.71664,4.41962 1.42068,0 1.42068,-2.94641 5.68272,7.36604 2.84135,-1.47321 1.42068,0 -2.84136,13.25888 14.20679,-1.47321 -1.42068,-5.89283 -4.26203,1.47321 c 0,-4.40932 0.6734,-9.61858 -2.99906,-12.76831 -4.3146,-3.69922 -14.22099,-3.58726 -15.46977,2.45584 z"
       style="fill:#7f8694;stroke:none" />
    <path
       inkscape:connector-curvature="0"
       id="path952"
       d="m 325.08191,450.80764 0.94617,0.49206 -0.94617,-0.49206 z"
       style="fill:#574662;stroke:none" />
    <path
       inkscape:connector-curvature="0"
       id="path954"
       d="m 324.13432,456.2099 7.10339,-4.41962 -7.10339,4.41962 z"
       style="fill:#d7d7d7;stroke:none" />
    <path
       inkscape:connector-curvature="0"
       id="path956"
       d="m 400.85096,450.31707 0,10.31246 1.42068,0 1.42068,-10.31246 -2.84136,0 z"
       style="fill:#7f8694;stroke:none" />
    <path
       inkscape:connector-curvature="0"
       id="path958"
       d="m 407.95435,450.31707 -1.42068,13.25888 1.42068,0 5.68272,-8.83926 0,-1.47321 -5.68272,-2.94641 z"
       style="fill:#ab96d1;stroke:none" />
    <path
       inkscape:connector-curvature="0"
       id="path962"
       d="m 325.555,457.68311 4.26203,-4.41963 -4.26203,4.41963 z"
       style="fill:#434248;stroke:none" />
    <path
       inkscape:connector-curvature="0"
       id="path964"
       d="m 331.23771,462.10274 0,-5.89284 1.42068,-1.47321 5.68271,1.47321 c -4.72517,-5.60556 -10.86535,-0.44196 -7.10339,5.89284 z"
       style="fill:#d7d7d7;stroke:none" />
    <path
       inkscape:connector-curvature="0"
       id="path966"
       d="m 399.43028,453.26348 -2.84136,17.67851 c 8.60648,-0.23866 17.43315,4.16771 24.15154,-2.94642 -14.89297,2.95084 -15.582,-2.39986 -21.31018,-14.73209 z"
       style="fill:#bababa;stroke:none" />
    <path
       inkscape:connector-curvature="0"
       id="path968"
       d="m 405.113,453.26348 -2.84136,11.78567 1.42068,0 2.84135,-1.4732 -1.42067,-10.31247 z"
       style="fill:#574662;stroke:none" />
    <path
       inkscape:connector-curvature="0"
       id="path970"
       d="m 331.23771,459.15632 4.26204,-1.47321 4.26203,8.83925 2.84136,-2.94641 1.42068,0 -2.84136,10.31246 5.68272,-11.78567 9.94475,2.94641 0,-10.31246 -2.84136,4.41963 c -7.10482,-1.64558 -17.65193,-7.7314 -22.73086,0 z"
       style="fill:#bababa;stroke:none" />
    <path
       inkscape:connector-curvature="0"
       id="path972"
       d="m 393.74757,454.73669 2.84135,4.41963 -2.84135,-4.41963 z"
       style="fill:#6f6d71;stroke:none" />
    <path
       inkscape:connector-curvature="0"
       id="path974"
       d="m 407.95435,462.10274 7.1034,4.41962 0,-11.78567 -7.1034,7.36605 m -85.24071,-5.89284 0,11.78567 1.42068,0 -1.42068,-11.78567 z"
       style="fill:#efeeef;stroke:none" />
    <path
       inkscape:connector-curvature="0"
       id="path976"
       d="m 324.13432,456.2099 4.26203,13.25888 1.42068,0 c -0.071,-6.19926 -0.3779,-9.88523 -5.68271,-13.25888 z"
       style="fill:#7f8694;stroke:none" />
    <path
       inkscape:connector-curvature="0"
       id="path978"
       d="m 366.75468,456.2099 0,2.94642 12.7861,0 0,-2.94642 -12.7861,0 z"
       style="fill:#6c9bc3;stroke:none" />
    <path
       inkscape:connector-curvature="0"
       id="path980"
       d="m 417.8991,456.2099 -1.42068,5.89284 1.42068,0 0,-5.89284 z"
       style="fill:#bababa;stroke:none" />
    <path
       inkscape:connector-curvature="0"
       id="path982"
       d="m 420.74046,456.2099 -1.42068,10.31246 1.42068,0 0,-10.31246 m 93.76479,0 c -21.59432,22.20715 -40.53196,48.5879 -65.776,66.11614 -9.47309,6.57788 -25.47277,8.42233 -36.51286,10.54817 -38.12391,7.33511 -68.52075,3.34124 -105.13021,-10.0738 -10.88524,-3.98945 -18.5356,-12.68285 -29.83425,-16.50141 l 4.26203,-1.47321 0,-1.47321 -14.20678,-4.41962 c 0.18468,21.48969 25.71996,34.40237 44.03961,39.58512 40.35011,11.41295 99.4887,17.81698 135.61229,-9.50662 10.15359,-7.68131 28.19479,-10.18282 30.60852,-25.65888 11.72913,-2.5074 9.28698,-12.20995 15.00805,-20.56599 4.27056,-6.23609 11.59274,-10.13421 17.04246,-15.18731 3.68808,-3.41932 7.18153,-6.40993 4.88714,-11.38938 z"
       style="fill:#57575f;stroke:none" />
    <path
       inkscape:connector-curvature="0"
       id="path984"
       d="m 321.29296,457.68311 1.42068,26.51776 1.42068,0 0,-11.78567 15.62746,-1.47321 -4.26203,-2.94642 0,2.94642 -7.1034,-1.47321 -1.42067,-4.41963 -2.84136,2.94642 -1.42068,0 -1.42068,-10.31246 z"
       style="fill:#bababa;stroke:none" />
    <path
       inkscape:connector-curvature="0"
       id="path986"
       d="m 332.65839,457.68311 c -2.42794,6.09319 -2.88824,9.59943 2.84136,13.25888 l 0,-13.25888 -2.84136,0 z"
       style="fill:#efeeef;stroke:none" />
    <path
       inkscape:connector-curvature="0"
       id="path988"
       d="m 368.17535,459.15632 0,1.47321 5.68272,0 -5.68272,-1.47321 z"
       style="fill:#4f5d86;stroke:none" />
    <path
       inkscape:connector-curvature="0"
       id="path990"
       d="m 427.84385,460.62953 1.42068,5.89283 8.52407,-1.47321 c 7.66456,6.71342 3.06867,12.57237 -5.68271,13.25888 l 0,2.94642 c 12.21926,0.91044 12.779,-6.8843 12.78611,-17.6785 l -4.26204,-2.94642 -9.94475,1.47321 0,-1.47321 7.10339,0 -9.94475,0 z"
       style="fill:#6f6d71;stroke:none" />
    <path
       inkscape:connector-curvature="0"
       id="path992"
       d="m 214.74207,460.62953 c 0.30971,9.92943 6.08903,17.19087 11.58279,24.98709 13.46377,19.10605 35.84514,42.86449 58.03046,50.14656 -13.47088,-19.2077 -45.33812,-32.08502 -51.14443,-55.98194 l -18.46882,-19.15171 z"
       style="fill:#bababa;stroke:none" />
    <path
       inkscape:connector-curvature="0"
       id="path994"
       d="m 389.48553,460.62953 -8.52407,13.25888 c 5.26646,-2.60906 10.16354,-6.75614 8.52407,-13.25888 z"
       style="fill:#7f8694;stroke:none" />
    <path
       inkscape:connector-curvature="0"
       id="path996"
       d="m 430.68521,460.62953 0,1.47321 8.52407,1.47321 -8.52407,-2.94642 z"
       style="fill:#ab96d1;stroke:none" />
    <path
       inkscape:connector-curvature="0"
       id="path998"
       d="m 346.86518,462.10274 0,1.47321 7.10339,2.94641 c -0.52565,-4.39458 -2.9607,-4.21779 -7.10339,-4.41962 z"
       style="fill:#57575f;stroke:none" />
    <path
       inkscape:connector-curvature="0"
       id="path1000"
       d="m 403.69232,462.10274 c 0.23583,5.38457 2.03583,6.35689 7.10339,5.89283 l 0,-2.94642 -7.10339,-2.94641 z"
       style="fill:#87788d;stroke:none" />
    <path
       inkscape:connector-curvature="0"
       id="path1002"
       d="m 407.95435,462.10274 5.68272,4.41962 -5.68272,-4.41962 z"
       style="fill:#d7d7d7;stroke:none" />
    <path
       inkscape:connector-curvature="0"
       id="path1004"
       d="m 275.83125,463.57595 0,14.73208 c 5.33464,-5.09583 5.57048,-9.79978 0,-14.73208 z"
       style="fill:#2b2c2e;stroke:none" />
    <path
       inkscape:connector-curvature="0"
       id="path1006"
       d="m 338.3411,463.57595 -1.42067,5.89283 1.42067,-5.89283 z"
       style="fill:#57575f;stroke:none" />
    <path
       inkscape:connector-curvature="0"
       id="path1008"
       d="m 342.60314,463.57595 -4.26204,8.83925 c 3.91539,-2.22897 5.68414,-4.2178 4.26204,-8.83925 m 4.26204,2.94641 4.26203,-1.47321 -4.26203,1.47321 z"
       style="fill:#7f8694;stroke:none" />
    <path
       inkscape:connector-curvature="0"
       id="path1010"
       d="m 351.12721,463.57595 -2.84136,1.4732 0,1.47321 2.84136,-2.94641 z"
       style="fill:#bababa;stroke:none" />
    <path
       inkscape:connector-curvature="0"
       id="path1012"
       d="m 444.892,463.57595 0,2.94641 2.84135,0 0,-2.94641 -2.84135,0 m 4.26203,0 0,2.94641 2.84136,0 0,-2.94641 -2.84136,0 m -142.06785,2.94641 0,7.36605 14.20678,-1.47321 c -2.2603,-7.41908 -7.59495,-7.46328 -14.20678,-5.89284 z"
       style="fill:#d7d7d7;stroke:none" />
    <path
       inkscape:connector-curvature="0"
       id="path1014"
       d="m 357.28301,466.03178 0.47451,0.98116 -0.47451,-0.98116 z"
       style="fill:#797898;stroke:none" />
    <path
       inkscape:connector-curvature="0"
       id="path1016"
       d="m 393.74757,465.04915 0,17.67851 2.84135,0 -2.84135,-17.67851 z"
       style="fill:#57575f;stroke:none" />
    <path
       inkscape:connector-curvature="0"
       id="path1018"
       d="m 399.43028,465.04915 -1.42068,2.94642 2.84136,0 -1.42068,-2.94642 z"
       style="fill:#6f6d71;stroke:none" />
    <path
       inkscape:connector-curvature="0"
       id="path1020"
       d="m 437.7886,465.04915 1.42068,13.25888 c 4.80758,-4.90431 4.63141,-9.79536 -1.42068,-13.25888 z"
       style="fill:#434248;stroke:none" />
    <path
       inkscape:connector-curvature="0"
       id="path1022"
       d="m 444.892,466.52236 0,1.47321 7.10339,0 -7.10339,-1.47321 z"
       style="fill:#ab96d1;stroke:none" />
    <path
       inkscape:connector-curvature="0"
       id="path1024"
       d="m 407.95435,470.94199 8.52407,-1.47321 c -3.68808,-2.64883 -5.89297,-2.35271 -8.52407,1.47321 z"
       style="fill:#ba98c9;stroke:none" />
    <path
       inkscape:connector-curvature="0"
       id="path1026"
       d="m 423.58182,467.99557 c -1.01863,7.28502 1.58263,12.59594 8.52407,14.73209 -1.55138,-4.7673 -6.46835,-8.08939 -1.42068,-11.78567 l -1.42068,5.89283 9.94475,1.47321 0,-10.31246 -15.62746,0 z"
       style="fill:#bababa;stroke:none" />
    <path
       inkscape:connector-curvature="0"
       id="path1028"
       d="m 230.36953,467.99557 c 3.70939,11.27447 17.07088,22.12907 28.41357,23.57134 l -28.41357,-23.57134 z"
       style="fill:#57575f;stroke:none" />
    <path
       inkscape:connector-curvature="0"
       id="path1030"
       d="m 305.6655,467.99557 1.42068,1.47321 -1.42068,-1.47321 z"
       style="fill:#7f8694;stroke:none" />
    <path
       inkscape:connector-curvature="0"
       id="path1032"
       d="m 307.08618,467.99557 c -4.9667,8.40908 -5.3588,17.36324 5.68271,19.15172 l 0,-1.47321 c -8.54538,-4.98681 -4.06598,-9.73202 -5.68271,-17.67851 z"
       style="fill:#efeeef;stroke:none" />
    <path
       inkscape:connector-curvature="0"
       id="path1034"
       d="m 281.51396,469.46878 c -7.03094,13.48723 4.79337,16.304 15.62747,23.32532 3.70939,2.40427 15.13448,4.97502 11.36542,10.55848 l 31.25493,-2.94641 -29.83425,-12.22322 -28.41357,-18.71417 z"
       style="fill:#57575f;stroke:none" />
    <path
       inkscape:connector-curvature="0"
       id="path1036"
       d="m 315.61025,469.46878 2.84135,13.25888 c 5.42131,-5.51127 3.9367,-10.31393 -2.84135,-13.25888 m 119.337,0 0,4.41963 2.84135,0 0,-4.41963 -2.84135,0 z"
       style="fill:#efeeef;stroke:none" />
    <path
       inkscape:connector-curvature="0"
       id="path1038"
       d="m 311.77299,472.12203 c -5.37016,2.32914 -2.40947,12.04201 3.41247,9.63037 5.38153,-2.22897 2.53876,-12.21291 -3.41247,-9.63037 z"
       style="fill:#393b43;stroke:none" />
    <path
       inkscape:connector-curvature="0"
       id="path1040"
       d="m 396.58892,475.36162 5.68272,0 -1.42068,-4.41963 -4.26204,4.41963 z"
       style="fill:#7f8694;stroke:none" />
    <path
       inkscape:connector-curvature="0"
       id="path1042"
       d="m 426.42317,470.94199 c 0.81974,5.11793 2.16796,6.516 7.1034,7.36604 l 0,-1.47321 -4.26204,0 1.42068,-5.89283 -4.26204,0 z"
       style="fill:#efeeef;stroke:none" />
    <path
       inkscape:connector-curvature="0"
       id="path1044"
       d="m 303.29723,473.39783 0.4745,0.98116 -0.4745,-0.98116 z"
       style="fill:#7f8694;stroke:none" />
    <path
       inkscape:connector-curvature="0"
       id="path1046"
       d="m 324.13432,472.4152 0,8.83925 2.84136,-4.41963 1.42067,0 2.84136,4.41963 -7.10339,-8.83925 z"
       style="fill:#6f6d71;stroke:none" />
    <path
       inkscape:connector-curvature="0"
       id="path1048"
       d="m 326.97568,472.4152 0,1.47321 4.26203,7.36604 1.42068,0 8.52407,-8.83925 -14.20678,0 z"
       style="fill:#d7d7d7;stroke:none" />
    <path
       inkscape:connector-curvature="0"
       id="path1050"
       d="m 409.37503,472.4152 0,1.47321 5.68272,0 -5.68272,-1.47321 z"
       style="fill:#57575f;stroke:none" />
    <path
       inkscape:connector-curvature="0"
       id="path1052"
       d="m 422.63423,473.39783 0.4745,0.98116 -0.4745,-0.98116 z"
       style="fill:#7f8694;stroke:none" />
    <path
       inkscape:connector-curvature="0"
       id="path1054"
       d="m 307.08618,473.88841 c -1.25446,4.86748 -1.35959,7.4839 2.84135,10.31246 l -2.84135,-10.31246 z"
       style="fill:#bababa;stroke:none" />
    <path
       inkscape:connector-curvature="0"
       id="path1056"
       d="m 318.4516,473.88841 0,5.89283 1.42068,0 -1.42068,-5.89283 z"
       style="fill:#6f6d71;stroke:none" />
    <path
       inkscape:connector-curvature="0"
       id="path1058"
       d="m 375.27875,475.36162 2.84135,5.89283 1.42068,0 1.42068,-7.36604 -5.68271,1.47321 z"
       style="fill:#ab96d1;stroke:none" />
    <path
       inkscape:connector-curvature="0"
       id="path1060"
       d="m 398.9572,474.37899 0.94617,0.49205 -0.94617,-0.49205 z"
       style="fill:#efeeef;stroke:none" />
    <path
       inkscape:connector-curvature="0"
       id="path1062"
       d="m 514.50525,473.88841 -29.83425,41.24984 8.52407,-2.94641 c 3.09139,-12.565 25.49834,-24.91933 21.31018,-38.30343 z"
       style="fill:#d7d7d7;stroke:none" />
    <path
       inkscape:connector-curvature="0"
       id="path1064"
       d="m 368.17535,475.36162 0,5.89283 1.42068,0 -1.42068,-5.89283 z"
       style="fill:#ab96d1;stroke:none" />
    <path
       inkscape:connector-curvature="0"
       id="path1066"
       d="m 369.59603,475.36162 0,5.89283 1.42068,0 -1.42068,-5.89283 z"
       style="fill:#efeeef;stroke:none" />
    <path
       inkscape:connector-curvature="0"
       id="path1068"
       d="m 372.43739,475.36162 1.42068,4.41962 1.42068,0 0,-4.41962 -2.84136,0 z"
       style="fill:#d7d7d7;stroke:none" />
    <path
       inkscape:connector-curvature="0"
       id="path1070"
       d="m 326.97568,476.83482 0,4.41963 1.42067,0 -1.42067,-4.41963 z"
       style="fill:#efeeef;stroke:none" />
    <path
       inkscape:connector-curvature="0"
       id="path1072"
       d="m 371.01671,476.83482 c -2.01594,5.63797 -4.2805,6.55726 -9.94475,5.89284 l 0,5.89284 4.26204,-1.47321 5.68271,7.36604 -2.84136,-7.36604 11.36543,-4.41963 -7.10339,1.47321 -1.42068,-7.36605 m -73.87528,1.47321 8.52407,7.36605 -8.52407,-7.36605 z"
       style="fill:#7f8694;stroke:none" />
    <path
       inkscape:connector-curvature="0"
       id="path1074"
       d="m 500.29846,478.30803 c -23.34175,36.1334 -50.22383,63.03861 -93.76479,70.71403 l 0,1.4732 c 41.99242,-0.89865 82.10528,-31.95979 96.60615,-72.18723 l -2.84136,0 z"
       style="fill:#ab96d1;stroke:none" />
    <path
       inkscape:connector-curvature="0"
       id="path1076"
       d="m 309.92753,484.20087 0,1.47321 2.84136,0 0,1.47321 -4.26204,0 0,1.47321 c 6.13449,-0.0575 10.91366,-0.0471 14.20679,-5.89284 l -12.78611,1.47321 z"
       style="fill:#d7d7d7;stroke:none" />
    <path
       inkscape:connector-curvature="0"
       id="path1078"
       d="m 368.17535,481.25445 -2.84135,1.47321 0,1.47321 2.84135,-2.94642 z"
       style="fill:#434248;stroke:none" />
    <path
       inkscape:connector-curvature="0"
       id="path1082"
       d="m 282.93464,482.72766 c 5.01784,9.65394 18.16764,17.25717 28.41357,19.15171 l -28.41357,-19.15171 z"
       style="fill:#7f8694;stroke:none" />
    <path
       inkscape:connector-curvature="0"
       id="path1084"
       d="m 309.92753,482.72766 0,1.47321 5.68272,0 -5.68272,-1.47321 z"
       style="fill:#87788d;stroke:none" />
    <path
       inkscape:connector-curvature="0"
       id="path1086"
       d="m 380.96146,482.72766 0,2.94642 4.26204,0 0,-2.94642 -4.26204,0 m 49.72375,0 0,1.47321 5.68271,0 -5.68271,-1.47321 m 12.78611,1.47321 0,2.94642 2.84135,0 0,-2.94642 -2.84135,0 z"
       style="fill:#6f6d71;stroke:none" />
    <path
       inkscape:connector-curvature="0"
       id="path1088"
       d="m 469.04353,495.98654 0,4.41963 -5.68271,0 c -3.50482,10.22406 -13.03189,11.75031 -21.18232,17.0023 -28.86535,18.60221 -59.94695,13.93508 -92.47197,13.93508 l 0,-4.41963 c -15.19131,-0.0103 -27.72738,-4.87926 -41.30623,-11.00487 -5.90576,-2.66356 -13.20094,-3.35891 -14.10023,-11.09326 l -15.62747,-4.41962 -19.8895,-8.83926 22.73086,11.78567 0,1.47321 -4.26203,1.47321 c 9.61941,4.4432 17.44877,11.87554 26.99431,15.92833 45.59099,19.35355 111.6284,26.41758 152.21434,-7.12591 10.88382,-8.99541 24.6232,-14.66137 29.63109,-29.42734 l -17.04814,10.31246 z"
       style="fill:#574662;stroke:none" />
    <path
       inkscape:connector-curvature="0"
       id="path1090"
       d="m 309.92753,488.6205 0,1.4732 5.68272,0 -5.68272,-1.4732 z"
       style="fill:#ab96d1;stroke:none" />
    <path
       inkscape:connector-curvature="0"
       id="path1092"
       d="m 315.61025,488.6205 c 6.74396,10.585 28.45335,13.25151 39.779,13.25887 l 0,-1.4732 -39.779,-11.78567 z"
       style="fill:#6f6d71;stroke:none" />
    <path
       inkscape:connector-curvature="0"
       id="path1094"
       d="m 267.30718,494.51333 0,1.47321 11.36542,4.41963 31.25493,4.41962 c -8.87924,-10.67634 -29.80868,-10.28447 -42.62035,-10.31246 z"
       style="fill:#2b2c2e;stroke:none" />
    <path
       inkscape:connector-curvature="0"
       id="path1138"
       d="m 351.12721,501.87937 0,1.47321 18.46882,0 -18.46882,-1.47321 z"
       style="fill:#574662;stroke:none" />
    <path
       inkscape:connector-curvature="0"
       id="path1252"
       d="m 433.52657,543.12922 0,1.47321 8.52407,-1.47321 -8.52407,0 m -82.39936,11.78567 0,1.47321 29.83425,0 -29.83425,-1.47321 z"
       style="fill:#bababa;stroke:none" />
  </g>
</svg>
