<svg id="Layer_1" enable-background="new 0 0 511.998 511.998" height="512" viewBox="0 0 511.998 511.998" width="512" xmlns="http://www.w3.org/2000/svg"><g><path d="m53.584 157.379v134.245c11.151 268.596 393.78 268.389 404.83 0v-134.245z" fill="#f4f1f1"/><path d="m458.414 291.624v-134.245h-202.415v336.659c111.612 0 202.415-90.802 202.415-202.414z" fill="#eceae7"/><path d="m53.584 96.669h404.83v90.71h-404.83z" fill="#eceae7"/><path d="m255.999 96.669h202.415v90.71h-202.415z" fill="#e7dfdd"/><path d="m255.999 215.984c-59.355 0-107.644 48.289-107.644 107.643 5.913 142.804 209.396 142.762 215.287-.001.001-59.354-48.288-107.642-107.643-107.642z" fill="#0d8ebc"/><path d="m363.643 323.627c0-59.354-48.289-107.643-107.644-107.643v215.286c59.355 0 107.644-48.288 107.644-107.643z" fill="#0a789b"/><path d="m288.784 323.627c0 18.106-14.678 32.785-32.785 32.785-43.488-1.727-43.476-63.849 0-65.569 18.106-.001 32.785 14.677 32.785 32.784z" fill="#08475e"/><path d="m255.999 290.842v65.569c43.499-1.731 43.466-63.853 0-65.569z" fill="#05303d"/><path d="m255.999 371.411c-26.349 0-47.785-21.436-47.785-47.785 2.625-63.393 92.954-63.375 95.569 0 0 26.349-21.435 47.785-47.784 47.785zm0-65.569c-9.807 0-17.785 7.978-17.785 17.785.977 23.594 34.596 23.587 35.569 0 0-9.807-7.977-17.785-17.784-17.785z" fill="#0a617d"/><path d="m255.999 275.842v30c23.599.979 23.581 34.599 0 35.569v30c63.408-2.632 63.359-92.961 0-95.569z" fill="#08475e"/><g><path d="m112.471 222.406h30v30.002h-30z" fill="#ff415b"/></g><path d="m0 17.96v52.524c0 30.98 25.204 56.185 56.185 56.185h399.629c30.98 0 56.185-25.204 56.185-56.185v-52.524z" fill="#0d8ebc"/><path d="m255.999 17.96v108.709h199.814c30.98 0 56.185-25.204 56.185-56.185v-52.524z" fill="#0a789b"/></g></svg>