<svg id="Capa_1" enable-background="new 0 0 512 512" height="512" viewBox="0 0 512 512" width="512" xmlns="http://www.w3.org/2000/svg"><g><g><path d="m276.853 119.146v62.274h63.693v-88.405c0-22.091-17.909-40-40-40h-207.58v106.403c23.985-14.177 55.06-29.782 92.842-42.494 24.326-8.185 47.095-13.712 67.492-17.461 12.263-2.254 23.553 7.214 23.553 19.683z" fill="#e9f5ff"/><g fill="#d7ebfd"><path d="m223.3 99.463c-20.397 3.749-43.166 9.276-67.492 17.461-23.594 7.939-44.572 17.006-62.842 26.148v16.346c23.985-14.177 55.06-29.782 92.842-42.494 18.41-6.194 35.925-10.864 52.198-14.395-4.134-2.787-9.326-4.055-14.706-3.066z"/><path d="m300.546 53.015h-30c22.091 0 40 17.909 40 40v88.405h30v-88.405c0-22.092-17.908-40-40-40z"/></g><path d="m77.2 203.5h-14c-1.657 0-3-1.343-3-3v-190c0-1.657 1.343-3 3-3h14c13.255 0 24 10.745 24 24v148c0 13.255-10.745 24-24 24z" fill="#3c6d91"/><path d="m77.2 7.5h-14c-.941 0-1.77.442-2.32 1.12 9.707 3.076 16.742 12.156 16.742 22.88v148c0 10.725-7.036 19.804-16.742 22.88.55.678 1.379 1.12 2.32 1.12h14c13.255 0 24-10.745 24-24v-148c0-13.255-10.745-24-24-24z" fill="#345e80"/><g><ellipse cx="308.7" cy="361.5" fill="#e9f5ff" rx="121.886" ry="143"/><path d="m308.7 218.5c-5.079 0-10.084.371-15 1.079 60.239 8.674 106.886 68.904 106.886 141.921s-46.648 133.247-106.886 141.921c4.916.708 9.921 1.079 15 1.079 67.316 0 121.886-64.023 121.886-143s-54.57-143-121.886-143z" fill="#d7ebfd"/><path d="m444.8 342.996h-272.201c-3.866 0-7-3.134-7-7v-59.896c0-79.032 64.068-143.1 143.101-143.1 79.032 0 143.101 64.068 143.101 143.101v59.896c-.001 3.865-3.135 6.999-7.001 6.999z" fill="#3c6d91"/><path d="m308.7 133c-5.066 0-10.07.267-15 .781 71.982 7.498 128.101 68.354 128.101 142.32v59.896c0 3.866-3.134 7-7 7h30c3.866 0 7-3.134 7-7v-59.896c-.001-79.033-64.069-143.101-143.101-143.101z" fill="#345e80"/><g><circle cx="308.7" cy="423.748" fill="#3c6d91" r="36.7"/><path d="m308.7 387.048c-5.346 0-10.419 1.152-15 3.207 12.788 5.736 21.7 18.57 21.7 33.493s-8.912 27.757-21.7 33.493c4.581 2.055 9.654 3.207 15 3.207 20.269 0 36.7-16.431 36.7-36.7s-16.431-36.7-36.7-36.7z" fill="#345e80"/></g></g></g><path d="m264.5 423.748c0 24.373 19.828 44.201 44.2 44.201s44.2-19.828 44.2-44.201c0-24.372-19.828-44.2-44.2-44.2s-44.2 19.828-44.2 44.2zm73.4 0c0 16.101-13.1 29.201-29.2 29.201-16.101 0-29.2-13.1-29.2-29.201s13.099-29.2 29.2-29.2c16.1 0 29.2 13.099 29.2 29.2zm10.149-293.022v-37.716c0-26.191-21.309-47.5-47.5-47.5h-118.813c-4.142 0-7.5 3.358-7.5 7.5s3.358 7.5 7.5 7.5h118.814c17.92 0 32.5 14.58 32.5 32.5v34.469c-7.929-1.294-16.06-1.979-24.35-1.979s-16.421.684-24.35 1.979v-8.329c0-8.197-3.613-15.908-9.911-21.156-6.275-5.228-14.473-7.381-22.495-5.91-23.145 4.255-46.2 10.219-68.527 17.729-25.68 8.644-50.757 19.454-74.717 32.19v-81.493h38.036c4.142 0 7.5-3.358 7.5-7.5s-3.358-7.5-7.5-7.5h-38.036v-14.01c0-17.369-14.131-31.5-31.5-31.5h-14c-5.79 0-10.5 4.71-10.5 10.5v190c0 5.79 4.71 10.5 10.5 10.5h14c17.369 0 31.5-14.131 31.5-31.5v-20.434c25.348-14.021 52.07-25.804 79.501-35.037 21.651-7.282 44.01-13.066 66.453-17.192 3.627-.667 7.338.312 10.183 2.681 2.868 2.39 4.513 5.9 4.513 9.632v11.576c-64.018 17.346-111.25 75.943-111.25 145.375v59.896c0 7.995 6.505 14.5 14.5 14.5h7.063c-.226 3.649-.352 7.325-.352 11.003 0 82.986 58.044 150.5 129.39 150.5 33.868 0 65.883-15.094 90.146-42.501 2.746-3.102 2.458-7.841-.644-10.587-3.103-2.745-7.843-2.457-10.587.644-21.378 24.146-49.404 37.444-78.916 37.444-63.075 0-114.39-60.785-114.39-135.5 0-3.683.139-7.36.386-11.003h228.008c.247 3.642.386 7.32.386 11.003 0 25.025-5.812 49.474-16.806 70.703-1.904 3.678-.467 8.204 3.211 10.109 3.628 1.879 8.181.514 10.109-3.21 12.093-23.352 18.485-50.186 18.485-77.602 0-3.679-.126-7.355-.353-11.003h7.063c7.995 0 14.5-6.505 14.5-14.5v-59.896c.001-69.432-47.232-128.029-111.25-145.375zm-254.349 48.774c0 9.098-7.402 16.5-16.5 16.5h-9.5v-181h9.5c9.098 0 16.5 7.402 16.5 16.5zm350.6 155.997h-271.201v-59.396c0-74.771 60.83-135.601 135.601-135.601s135.6 60.83 135.6 135.601zm-145.6 88.251c0 5.523 4.477 10 10 10s10-4.477 10-10-4.477-10-10-10-10 4.477-10 10z"/></g></svg>