<svg id="Capa_1" enable-background="new 0 0 497 497" height="512" viewBox="0 0 497 497" width="512" xmlns="http://www.w3.org/2000/svg"><g><g><path d="m76.346 47.684c-4.142 0-7.5-3.357-7.5-7.5v-13.258c0-4.143 3.358-7.5 7.5-7.5s7.5 3.357 7.5 7.5v13.258c0 4.142-3.358 7.5-7.5 7.5z" fill="#848383"/></g><g><path d="m206.593 111.129h-13.976c-4.142 0-7.5-3.357-7.5-7.5s3.358-7.5 7.5-7.5h13.976c4.142 0 7.5 3.357 7.5 7.5s-3.358 7.5-7.5 7.5z" fill="#848383"/></g><g><path d="m305.885 171.422c-4.142 0-7.5-3.357-7.5-7.5v-11.04c0-4.143 3.358-7.5 7.5-7.5s7.5 3.357 7.5 7.5v11.04c0 4.142-3.358 7.5-7.5 7.5z" fill="#848383"/></g><g><path d="m365.223 47.684c-4.142 0-7.5-3.357-7.5-7.5v-12.794c0-4.143 3.358-7.5 7.5-7.5s7.5 3.357 7.5 7.5v12.794c0 4.142-3.358 7.5-7.5 7.5z" fill="#848383"/></g><g><path d="m478.039 104.033h-17.021c-4.142 0-7.5-3.357-7.5-7.5s3.358-7.5 7.5-7.5h17.021c4.142 0 7.5 3.357 7.5 7.5s-3.358 7.5-7.5 7.5z" fill="#848383"/></g><g><path d="m34.659 104.033h-15.698c-4.142 0-7.5-3.357-7.5-7.5s3.358-7.5 7.5-7.5h15.698c4.142 0 7.5 3.357 7.5 7.5s-3.358 7.5-7.5 7.5z" fill="#848383"/></g><g><path d="m248.5 179.667c-4.142 0-7.5-3.357-7.5-7.5v-137.076c0-4.143 3.358-7.5 7.5-7.5s7.5 3.357 7.5 7.5v137.076c0 4.143-3.358 7.5-7.5 7.5z" fill="#b9acac"/></g><g><g><path d="m478.039 179.667c-4.142 0-7.5-3.357-7.5-7.5v-137.076c0-4.143 3.358-7.5 7.5-7.5s7.5 3.357 7.5 7.5v137.076c0 4.143-3.358 7.5-7.5 7.5z" fill="#b9acac"/></g><g><path d="m18.961 179.667c-4.142 0-7.5-3.357-7.5-7.5v-137.076c0-4.143 3.358-7.5 7.5-7.5s7.5 3.357 7.5 7.5v137.076c0 4.143-3.358 7.5-7.5 7.5z" fill="#b9acac"/></g></g><g><g><path d="m76.346 160.382c-35.777 0-64.885-28.643-64.885-63.849 0-35.207 29.107-63.85 64.885-63.85s64.885 28.643 64.885 63.85c-.001 35.206-29.108 63.849-64.885 63.849zm0-112.698c-27.506 0-49.885 21.914-49.885 48.85s22.378 48.849 49.885 48.849 49.885-21.913 49.885-48.849-22.379-48.85-49.885-48.85z" fill="#cdbfba"/></g><g><path d="m76.346 160.382c-35.777 0-64.885-28.643-64.885-63.849 0-35.207 29.107-63.85 64.885-63.85s64.885 28.643 64.885 63.85c-.001 35.206-29.108 63.849-64.885 63.849zm0-112.698c-27.506 0-49.885 21.914-49.885 48.85s22.378 48.849 49.885 48.849 49.885-21.913 49.885-48.849-22.379-48.85-49.885-48.85z" fill="#cdbfba"/></g><g><path d="m135.684 160.382c-35.777 0-64.885-28.643-64.885-63.849 0-35.207 29.107-63.85 64.885-63.85s64.885 28.643 64.885 63.85c0 35.206-29.108 63.849-64.885 63.849zm0-112.698c-27.506 0-49.885 21.914-49.885 48.85s22.378 48.849 49.885 48.849 49.885-21.913 49.885-48.849-22.379-48.85-49.885-48.85z" fill="#b9acac"/></g><g><path d="m191.115 160.382c-35.777 0-64.885-28.643-64.885-63.849 0-23.263 12.871-44.699 33.589-55.943 3.64-1.979 8.193-.626 10.169 3.015s.626 8.193-3.014 10.169c-15.879 8.618-25.744 25.003-25.744 42.76 0 26.936 22.378 48.849 49.885 48.849s49.885-21.914 49.885-48.85c0-23.964-18.213-44.728-42.366-48.3-4.098-.605-6.928-4.419-6.322-8.516.606-4.098 4.419-6.938 8.517-6.322 15.188 2.245 29.13 9.792 39.258 21.25 10.262 11.609 15.913 26.485 15.913 41.888 0 35.206-29.107 63.849-64.885 63.849z" fill="#cdbfba"/></g></g><g><g><path d="m305.885 160.382c-35.777 0-64.885-28.643-64.885-63.849 0-35.207 29.107-63.85 64.885-63.85s64.885 28.643 64.885 63.85c0 35.206-29.108 63.849-64.885 63.849zm0-112.698c-27.506 0-49.885 21.914-49.885 48.85s22.378 48.849 49.885 48.849 49.885-21.913 49.885-48.849-22.379-48.85-49.885-48.85z" fill="#cdbfba"/></g><g><path d="m305.885 160.382c-35.777 0-64.885-28.643-64.885-63.849 0-35.207 29.107-63.85 64.885-63.85s64.885 28.643 64.885 63.85c0 35.206-29.108 63.849-64.885 63.849zm0-112.698c-27.506 0-49.885 21.914-49.885 48.85s22.378 48.849 49.885 48.849 49.885-21.913 49.885-48.849-22.379-48.85-49.885-48.85z" fill="#cdbfba"/></g><g><path d="m365.223 160.382c-35.777 0-64.885-28.643-64.885-63.849 0-35.207 29.107-63.85 64.885-63.85s64.885 28.643 64.885 63.85c0 8.812-1.793 17.35-5.329 25.377-1.67 3.791-6.097 5.511-9.887 3.84-3.791-1.67-5.51-6.096-3.84-9.887 2.691-6.109 4.056-12.613 4.056-19.33 0-26.936-22.378-48.85-49.885-48.85s-49.885 21.914-49.885 48.85 22.378 48.849 49.885 48.849c8.453 0 16.8-2.105 24.139-6.088 3.639-1.979 8.193-.626 10.169 3.015s.626 8.193-3.015 10.169c-9.528 5.17-20.349 7.904-31.293 7.904z" fill="#b9acac"/></g><g><path d="m420.654 160.382c-35.777 0-64.885-28.643-64.885-63.849 0-35.207 29.107-63.85 64.885-63.85s64.885 28.643 64.885 63.85c0 35.206-29.107 63.849-64.885 63.849zm0-112.698c-27.506 0-49.885 21.914-49.885 48.85s22.378 48.849 49.885 48.849 49.885-21.913 49.885-48.849-22.378-48.85-49.885-48.85z" fill="#cdbfba"/></g></g><g><g><g><path d="m300.652 224.211c-1.919 0-3.839-.732-5.303-2.196l-34.402-34.402c-2.929-2.93-2.929-7.678 0-10.607 2.929-2.928 7.678-2.928 10.606 0l29.099 29.1 26.37-26.37c2.929-2.928 7.678-2.928 10.606 0 2.929 2.93 2.929 7.678 0 10.607l-31.673 31.673c-1.464 1.463-3.384 2.195-5.303 2.195z" fill="#cdbfba"/></g><g><path d="m363.999 224.211c-1.989 0-3.897-.79-5.303-2.196l-31.673-31.673c-2.929-2.93-2.929-7.678 0-10.607 2.929-2.928 7.678-2.928 10.606 0l26.37 26.37 26.369-26.37c2.929-2.928 7.678-2.928 10.606 0 2.929 2.93 2.929 7.678 0 10.607l-31.672 31.673c-1.406 1.406-3.314 2.196-5.303 2.196z" fill="#cdbfba"/></g><g><path d="m427.345 224.211c-1.919 0-3.839-.732-5.303-2.196l-31.673-31.673c-2.929-2.93-2.929-7.678 0-10.607 2.929-2.928 7.678-2.928 10.606 0l26.37 26.37 30.717-30.718c2.929-2.928 7.678-2.928 10.606 0 2.929 2.93 2.929 7.678 0 10.607l-36.021 36.021c-1.463 1.464-3.382 2.196-5.302 2.196z" fill="#cdbfba"/></g></g><g><g><path d="m300.652 287.548c-1.919 0-3.839-.732-5.303-2.196l-31.673-31.673c-2.929-2.93-2.929-7.678 0-10.607l31.673-31.673c2.929-2.928 7.678-2.928 10.606 0l31.673 31.673c2.929 2.93 2.929 7.678 0 10.607l-31.673 31.673c-1.464 1.463-3.384 2.196-5.303 2.196zm-21.067-39.173 21.066 21.066 21.066-21.066-21.066-21.066z" fill="#cdbfba"/></g><g><path d="m363.999 287.548c-1.989 0-3.897-.79-5.303-2.196l-31.673-31.673c-2.929-2.93-2.929-7.678 0-10.607l31.673-31.673c1.406-1.406 3.314-2.196 5.303-2.196 1.989 0 3.897.79 5.303 2.196l31.672 31.673c2.929 2.93 2.929 7.678 0 10.607l-31.672 31.673c-1.406 1.406-3.314 2.196-5.303 2.196zm-21.067-39.173 21.066 21.066 21.066-21.066-21.066-21.066z" fill="#cdbfba"/></g><g><path d="m427.345 287.548c-1.919 0-3.839-.732-5.303-2.196l-31.673-31.673c-2.929-2.93-2.929-7.678 0-10.607l31.673-31.673c2.929-2.928 7.678-2.928 10.606 0l31.673 31.673c2.929 2.93 2.929 7.678 0 10.607l-31.673 31.673c-1.464 1.463-3.383 2.196-5.303 2.196zm-21.066-39.173 21.066 21.066 21.066-21.066-21.066-21.066z" fill="#cdbfba"/></g></g><g><g><path d="m300.652 350.892c-1.919 0-3.839-.732-5.303-2.196l-31.673-31.673c-2.929-2.93-2.929-7.678 0-10.607l31.673-31.673c2.929-2.928 7.678-2.928 10.606 0l31.673 31.673c2.929 2.93 2.929 7.678 0 10.607l-31.673 31.673c-1.464 1.463-3.384 2.196-5.303 2.196zm-21.067-39.173 21.066 21.066 21.066-21.066-21.066-21.066z" fill="#cdbfba"/></g><g><path d="m363.999 350.892c-1.989 0-3.897-.79-5.303-2.196l-31.673-31.673c-2.929-2.93-2.929-7.678 0-10.607l31.673-31.673c1.406-1.406 3.314-2.196 5.303-2.196 1.989 0 3.897.79 5.303 2.196l31.672 31.673c2.929 2.93 2.929 7.678 0 10.607l-31.672 31.673c-1.406 1.406-3.314 2.196-5.303 2.196zm-21.067-39.173 21.066 21.066 21.066-21.066-21.066-21.066z" fill="#cdbfba"/></g><g><path d="m427.345 350.892c-1.919 0-3.839-.732-5.303-2.196l-31.673-31.673c-2.929-2.93-2.929-7.678 0-10.607l31.673-31.673c2.929-2.928 7.678-2.928 10.606 0l31.673 31.673c2.929 2.93 2.929 7.678 0 10.607l-31.673 31.673c-1.464 1.463-3.383 2.196-5.303 2.196zm-21.066-39.173 21.066 21.066 21.066-21.066-21.066-21.066z" fill="#cdbfba"/></g></g><g><g><path d="m300.652 414.229c-1.919 0-3.839-.732-5.303-2.196l-31.673-31.673c-2.929-2.93-2.929-7.678 0-10.607l31.673-31.673c2.929-2.928 7.678-2.928 10.606 0l31.673 31.673c2.929 2.93 2.929 7.678 0 10.607l-31.673 31.673c-1.464 1.463-3.384 2.196-5.303 2.196zm-21.067-39.173 21.066 21.066 21.066-21.066-21.066-21.066z" fill="#cdbfba"/></g><g><path d="m363.999 414.229c-1.989 0-3.897-.79-5.303-2.196l-31.673-31.673c-2.929-2.93-2.929-7.678 0-10.607l31.673-31.673c1.406-1.406 3.314-2.196 5.303-2.196 1.989 0 3.897.79 5.303 2.196l31.672 31.673c2.929 2.93 2.929 7.678 0 10.607l-31.672 31.673c-1.406 1.405-3.314 2.196-5.303 2.196zm-21.067-39.173 21.066 21.066 21.066-21.066-21.066-21.066z" fill="#cdbfba"/></g><g><path d="m427.345 414.229c-1.919 0-3.839-.732-5.303-2.196l-31.673-31.673c-2.929-2.93-2.929-7.678 0-10.607l31.673-31.673c2.929-2.928 7.678-2.928 10.606 0l31.673 31.673c2.929 2.93 2.929 7.678 0 10.607l-31.673 31.673c-1.464 1.463-3.383 2.196-5.303 2.196zm-21.066-39.173 21.066 21.066 21.066-21.066-21.066-21.066z" fill="#cdbfba"/></g></g><g><g><path d="m300.652 477.574c-1.919 0-3.839-.732-5.303-2.196l-31.673-31.673c-2.929-2.93-2.929-7.678 0-10.607l31.673-31.673c2.929-2.928 7.678-2.928 10.606 0l31.673 31.673c2.929 2.93 2.929 7.678 0 10.607l-31.673 31.673c-1.464 1.464-3.384 2.196-5.303 2.196zm-21.067-39.173 21.066 21.066 21.066-21.066-21.066-21.066z" fill="#cdbfba"/></g><g><path d="m363.999 477.574c-1.989 0-3.897-.79-5.303-2.196l-31.673-31.673c-2.929-2.93-2.929-7.678 0-10.607l31.673-31.673c1.406-1.406 3.314-2.196 5.303-2.196 1.989 0 3.897.79 5.303 2.196l31.672 31.673c2.929 2.93 2.929 7.678 0 10.607l-31.672 31.673c-1.406 1.406-3.314 2.196-5.303 2.196zm-21.067-39.173 21.066 21.066 21.066-21.066-21.066-21.066z" fill="#cdbfba"/></g><g><path d="m427.345 477.574c-1.919 0-3.839-.732-5.303-2.196l-31.673-31.673c-2.929-2.93-2.929-7.678 0-10.607l31.673-31.673c2.929-2.928 7.678-2.928 10.606 0 2.929 2.93 2.929 7.678 0 10.607l-26.37 26.369 21.066 21.066 26.37-26.37c2.929-2.928 7.678-2.928 10.606 0 2.929 2.93 2.929 7.678 0 10.607l-31.673 31.673c-1.463 1.465-3.382 2.197-5.302 2.197z" fill="#cdbfba"/></g></g></g><g><g><g><path d="m69.601 224.211c-1.989 0-3.897-.79-5.303-2.196l-34.222-34.222c-2.929-2.93-2.929-7.678 0-10.607 2.929-2.928 7.678-2.928 10.606 0l28.918 28.919 26.37-26.37c2.929-2.928 7.678-2.928 10.606 0 2.929 2.93 2.929 7.678 0 10.607l-31.673 31.673c-1.405 1.406-3.313 2.196-5.302 2.196z" fill="#cdbfba"/></g><g><path d="m132.947 224.211c-1.919 0-3.839-.732-5.303-2.196l-31.673-31.673c-2.929-2.93-2.929-7.678 0-10.607 2.929-2.928 7.678-2.928 10.606 0l26.37 26.37 26.37-26.37c2.929-2.928 7.678-2.928 10.606 0 2.929 2.93 2.929 7.678 0 10.607l-31.673 31.673c-1.464 1.464-3.383 2.196-5.303 2.196z" fill="#cdbfba"/></g><g><path d="m196.294 224.211c-1.989 0-3.897-.79-5.303-2.196l-31.672-31.673c-2.929-2.93-2.929-7.678 0-10.607 2.929-2.928 7.678-2.928 10.606 0l26.369 26.37 28.354-28.355c2.929-2.928 7.678-2.928 10.606 0 2.929 2.93 2.929 7.678 0 10.607l-33.658 33.658c-1.405 1.406-3.313 2.196-5.302 2.196z" fill="#cdbfba"/></g></g><g><g><path d="m69.601 287.548c-1.989 0-3.897-.79-5.303-2.196l-31.672-31.673c-2.929-2.93-2.929-7.678 0-10.607l31.672-31.673c1.406-1.406 3.314-2.196 5.303-2.196s3.897.79 5.303 2.196l31.673 31.673c2.929 2.93 2.929 7.678 0 10.607l-31.673 31.673c-1.406 1.406-3.314 2.196-5.303 2.196zm-21.066-39.173 21.066 21.066 21.066-21.066-21.066-21.066z" fill="#cdbfba"/></g><g><path d="m132.947 287.548c-1.919 0-3.839-.732-5.303-2.196l-31.673-31.673c-2.929-2.93-2.929-7.678 0-10.607l31.673-31.673c2.929-2.928 7.678-2.928 10.606 0l31.673 31.673c2.929 2.93 2.929 7.678 0 10.607l-31.673 31.673c-1.464 1.463-3.383 2.196-5.303 2.196zm-21.066-39.173 21.066 21.066 21.066-21.066-21.066-21.066z" fill="#cdbfba"/></g><g><path d="m196.294 287.548c-1.989 0-3.897-.79-5.303-2.196l-31.672-31.673c-2.929-2.93-2.929-7.678 0-10.607l31.672-31.673c1.406-1.406 3.314-2.196 5.303-2.196s3.897.79 5.303 2.196l31.673 31.673c2.929 2.93 2.929 7.678 0 10.607l-31.673 31.673c-1.406 1.406-3.314 2.196-5.303 2.196zm-21.066-39.173 21.066 21.066 21.066-21.066-21.066-21.066z" fill="#cdbfba"/></g></g><g><g><path d="m69.601 350.892c-1.989 0-3.897-.79-5.303-2.196l-31.672-31.673c-2.929-2.93-2.929-7.678 0-10.607l31.672-31.673c1.406-1.406 3.314-2.196 5.303-2.196s3.897.79 5.303 2.196l31.673 31.673c2.929 2.93 2.929 7.678 0 10.607l-31.673 31.673c-1.406 1.406-3.314 2.196-5.303 2.196zm-21.066-39.173 21.066 21.066 21.066-21.066-21.066-21.066z" fill="#cdbfba"/></g><g><path d="m132.947 350.892c-1.919 0-3.839-.732-5.303-2.196l-31.673-31.673c-2.929-2.93-2.929-7.678 0-10.607l31.673-31.673c2.929-2.928 7.678-2.928 10.606 0l31.673 31.673c2.929 2.93 2.929 7.678 0 10.607l-31.673 31.673c-1.464 1.463-3.383 2.196-5.303 2.196zm-21.066-39.173 21.066 21.066 21.066-21.066-21.066-21.066z" fill="#cdbfba"/></g><g><path d="m196.294 350.892c-1.989 0-3.897-.79-5.303-2.196l-31.672-31.673c-2.929-2.93-2.929-7.678 0-10.607l31.672-31.673c1.406-1.406 3.314-2.196 5.303-2.196s3.897.79 5.303 2.196l31.673 31.673c2.929 2.93 2.929 7.678 0 10.607l-31.673 31.673c-1.406 1.406-3.314 2.196-5.303 2.196zm-21.066-39.173 21.066 21.066 21.066-21.066-21.066-21.066z" fill="#cdbfba"/></g></g><g><g><path d="m69.601 414.229c-1.989 0-3.897-.79-5.303-2.196l-31.672-31.673c-2.929-2.93-2.929-7.678 0-10.607l31.672-31.673c1.406-1.406 3.314-2.196 5.303-2.196s3.897.79 5.303 2.196l31.673 31.673c2.929 2.93 2.929 7.678 0 10.607l-31.673 31.673c-1.406 1.405-3.314 2.196-5.303 2.196zm-21.066-39.173 21.066 21.066 21.066-21.066-21.066-21.066z" fill="#cdbfba"/></g><g><path d="m132.947 414.229c-1.919 0-3.839-.732-5.303-2.196l-31.673-31.673c-2.929-2.93-2.929-7.678 0-10.607l31.673-31.673c2.929-2.928 7.678-2.928 10.606 0l31.673 31.673c2.929 2.93 2.929 7.678 0 10.607l-31.673 31.673c-1.464 1.463-3.383 2.196-5.303 2.196zm-21.066-39.173 21.066 21.066 21.066-21.066-21.066-21.066z" fill="#cdbfba"/></g><g><path d="m196.294 414.229c-1.989 0-3.897-.79-5.303-2.196l-31.672-31.673c-2.929-2.93-2.929-7.678 0-10.607l31.672-31.673c1.406-1.406 3.314-2.196 5.303-2.196s3.897.79 5.303 2.196l31.673 31.673c2.929 2.93 2.929 7.678 0 10.607l-31.673 31.673c-1.406 1.405-3.314 2.196-5.303 2.196zm-21.066-39.173 21.066 21.066 21.066-21.066-21.066-21.066z" fill="#cdbfba"/></g></g><g><g><path d="m69.601 477.574c-1.989 0-3.897-.79-5.303-2.196l-31.672-31.673c-2.929-2.93-2.929-7.678 0-10.607l31.672-31.673c1.406-1.406 3.314-2.196 5.303-2.196s3.897.79 5.303 2.196l31.673 31.673c2.929 2.93 2.929 7.678 0 10.607l-31.673 31.673c-1.406 1.406-3.314 2.196-5.303 2.196zm-21.066-39.173 21.066 21.066 21.066-21.066-21.066-21.066z" fill="#cdbfba"/></g><g><path d="m132.947 477.574c-1.919 0-3.839-.732-5.303-2.196l-31.673-31.673c-2.929-2.93-2.929-7.678 0-10.607l31.673-31.673c2.929-2.928 7.678-2.928 10.606 0l31.673 31.673c2.929 2.93 2.929 7.678 0 10.607l-31.673 31.673c-1.464 1.464-3.383 2.196-5.303 2.196zm-21.066-39.173 21.066 21.066 21.066-21.066-21.066-21.066z" fill="#cdbfba"/></g><g><path d="m196.294 477.574c-1.919 0-3.839-.732-5.303-2.196-2.929-2.93-2.929-7.678 0-10.607l26.37-26.369-21.066-21.066-26.369 26.37c-2.929 2.928-7.678 2.928-10.606 0-2.929-2.93-2.929-7.678 0-10.607l31.672-31.673c1.406-1.406 3.314-2.196 5.303-2.196s3.897.79 5.303 2.196l31.673 31.673c2.929 2.93 2.929 7.678 0 10.607l-31.673 31.673c-1.465 1.463-3.385 2.195-5.304 2.195z" fill="#cdbfba"/></g></g></g><g><path d="m32.692 477.574h-23.226c-5.228 0-9.466-4.238-9.466-9.466v-285.221c0-5.92 4.799-10.72 10.72-10.72h20.719c5.92 0 10.72 4.799 10.72 10.72v285.221c0 5.228-4.238 9.466-9.467 9.466z" fill="#6c7fd8"/><path d="m30.856 172.167h-19.553c-.546 0-1.079.047-1.605.114 5.48.703 9.698 4.929 9.698 10.052v288.545c0 3.196-2.202 5.97-5.314 6.696h18.611c5.228 0 9.466-4.238 9.466-9.466v-285.774c0-5.615-5.061-10.167-11.303-10.167z" fill="#4f66d0"/><path d="m265.339 477.574h-33.678c-5.228 0-9.466-4.238-9.466-9.466v-284.418c0-6.364 5.159-11.523 11.523-11.523h29.565c6.364 0 11.523 5.159 11.523 11.523v284.418c-.001 5.228-4.239 9.466-9.467 9.466z" fill="#6c7fd8"/><path d="m261.746 172.167h-26.301c7.212 0 13.059 4.552 13.059 10.167v285.006c0 4.923-3.428 9.182-8.237 10.234h25.072c5.228 0 9.466-4.238 9.466-9.466v-285.774c0-5.615-5.847-10.167-13.059-10.167z" fill="#4f66d0"/><g><path d="m487.534 477.574h-23.226c-5.228 0-9.466-4.238-9.466-9.466v-285.221c0-5.92 4.799-10.72 10.72-10.72h20.719c5.92 0 10.72 4.799 10.72 10.72v285.221c-.001 5.228-4.239 9.466-9.467 9.466z" fill="#6c7fd8"/><path d="m485.697 172.167h-19.553c-.546 0-1.079.047-1.605.114 5.48.703 9.698 4.929 9.698 10.052v286.137c0 4.375-3.042 8.161-7.314 9.104h20.611c5.228 0 9.466-4.238 9.466-9.466v-285.774c0-5.615-5.06-10.167-11.303-10.167z" fill="#4f66d0"/></g></g></g></svg>